<?xml version="1.0" encoding="utf-8"?>
<!-- Generator: Adobe Illustrator 24.1.0, SVG Export Plug-In . SVG Version: 6.00 Build 0)  -->
<svg version="1.1" id="Livello_1" xmlns="https://www.w3.org/2000/svg" xmlns:xlink="https://www.w3.org/1999/xlink" x="0px" y="0px"
	 viewBox="0 0 220 60" style="enable-background:new 0 0 220 60;" xml:space="preserve" width="200px" height="60px">
<style type="text/css">
	.st0{fill-rule:evenodd;clip-rule:evenodd;fill:#FFFFFF;}
</style>
<g>
	<desc>Created with Sketch.</desc>
	<g id="Page-3_2_">
		<g id="_x30_1-CSSDAY-Logo-RGB-2018_2_" transform="translate(0.000000, 1.000000)">
			<g id="Group-101_2_">
				<path id="Fill-89_2_" class="st0" d="M78.92,31.64l-6.66-6.66l-4.25,1.42l2.83-2.83l0,0l9.67-9.67c0.8-0.8,0.8-2.11,0-2.91
					l-6.62-6.62c-0.39-0.39-0.91-0.6-1.46-0.6c-0.55,0-1.07,0.22-1.46,0.6L53.23,22.11c-0.8,0.8-0.8,2.11,0,2.91l8.08,8.08
					l-9.67,9.67c-0.8,0.8-0.8,2.11,0,2.91l6.62,6.62c0.39,0.39,0.91,0.6,1.46,0.6s1.07-0.22,1.46-0.6l17.74-17.74
					C79.73,33.75,79.73,32.45,78.92,31.64"/>
				<path id="Fill-91_2_" class="st0" d="M56.67,31.64l-6.66-6.66l-4.25,1.42l2.84-2.84l9.67-9.67c0.39-0.39,0.6-0.91,0.6-1.46
					s-0.22-1.07-0.6-1.46l-6.62-6.62c-0.4-0.4-0.93-0.6-1.46-0.6c-0.53,0-1.05,0.2-1.46,0.6L30.98,22.11c-0.8,0.81-0.8,2.11,0,2.91
					l16.16,16.16c0.4,0.4,0.93,0.6,1.46,0.6s1.06-0.2,1.46-0.6l6.62-6.62C57.48,33.75,57.48,32.45,56.67,31.64"/>
				<path id="Fill-93_2_" class="st0" d="M102.76,10.99l-6.62-6.62c-0.39-0.39-0.91-0.6-1.46-0.6s-1.07,0.22-1.46,0.6L75.48,22.11
					c-0.39,0.39-0.6,0.91-0.6,1.46s0.22,1.07,0.6,1.46l8.08,8.08l-9.67,9.67c-0.81,0.8-0.81,2.11,0,2.91l6.62,6.62
					c0.4,0.4,0.93,0.6,1.46,0.6c0.53,0,1.05-0.2,1.46-0.6l17.74-17.74c0.8-0.8,0.8-2.11,0-2.91l-6.66-6.66l-4.25,1.42l2.84-2.84
					l9.67-9.67C103.57,13.09,103.57,11.79,102.76,10.99"/>
				<path id="Fill-95_2_" class="st0" d="M123.42,31.64l-16.15-16.15c-0.4-0.4-0.93-0.6-1.46-0.6c-0.53,0-1.06,0.2-1.46,0.6
					l-6.62,6.62c-0.8,0.81-0.8,2.11,0,2.91l8.08,8.08l-0.01,0.01l2.82,2.82l-4.24-1.41l-8.25,8.25c-0.39,0.39-0.6,0.91-0.6,1.46
					c0,0.55,0.22,1.07,0.6,1.46l6.62,6.62c0.4,0.4,0.93,0.6,1.46,0.6s1.05-0.2,1.46-0.6l17.74-17.74
					C124.22,33.75,124.22,32.45,123.42,31.64"/>
				<path id="Fill-97_2_" class="st0" d="M190.17,31.64l-6.62-6.62c-0.39-0.39-0.91-0.6-1.46-0.6s-1.07,0.22-1.46,0.6l-9.67,9.67
					l-2.84,2.84l1.42-4.25l-8.25-8.25c-0.4-0.4-0.93-0.6-1.46-0.6c-0.53,0-1.05,0.2-1.46,0.6l-6.62,6.62
					c-0.39,0.39-0.6,0.91-0.6,1.46c0,0.55,0.22,1.07,0.6,1.46l9.67,9.67l-6.02,6.02c-0.59,0.59-0.77,1.48-0.45,2.25
					c0.32,0.77,1.07,1.27,1.9,1.27h13.24c0.55,0,1.07-0.22,1.46-0.6l18.6-18.6C190.97,33.75,190.97,32.45,190.17,31.64"/>
				<path id="Fill-99_2_" class="st0" d="M157.4,44.23c0-0.55-0.22-1.07-0.6-1.46l-17.74-17.74c-0.39-0.39-0.91-0.6-1.46-0.6
					c-0.55,0-1.07,0.22-1.46,0.6l-17.74,17.74c-0.39,0.39-0.6,0.91-0.6,1.46s0.22,1.07,0.6,1.46l6.62,6.62
					c0.39,0.39,0.91,0.6,1.46,0.6l0,0c0.55,0,1.07-0.22,1.46-0.6l6.83-6.83h0l5.67-5.67l-1.42,4.25l8.25,8.25
					c0.4,0.4,0.93,0.6,1.46,0.6s1.06-0.2,1.46-0.6l6.62-6.62C157.18,45.3,157.4,44.77,157.4,44.23"/>
			</g>
		</g>
	</g>
</g>
</svg>
