<?xml version="1.0" encoding="utf-8"?>
<!-- Generator: Adobe Illustrator 24.1.0, SVG Export Plug-In . SVG Version: 6.00 Build 0)  -->
<svg version="1.1" id="Livello_1" xmlns="https://www.w3.org/2000/svg" xmlns:xlink="https://www.w3.org/1999/xlink" x="0px" y="0px"
	 viewBox="0 0 220 60" style="enable-background:new 0 0 220 60;" xml:space="preserve" width="200px" height="60px">
<style type="text/css">
	.st0{fill:#FFFFFF;}
</style>
<g>
	<g>
		<rect x="117.38" y="48.53" class="st0" width="1" height="4.7"/>
		<path class="st0" d="M121.61,53.23v-2.08c0.04-0.31-0.15-0.58-0.46-0.62c-0.08,0-0.12,0-0.19,0c-0.31,0-0.58,0.15-0.77,0.38v2.31
			h-0.89V49.8h0.89v0.46c0.31-0.35,0.73-0.54,1.19-0.54c0.54-0.08,1.04,0.31,1.12,0.85c0,0.08,0,0.15,0,0.23v2.42L121.61,53.23
			L121.61,53.23z"/>
		<path class="st0" d="M123.19,51.53c-0.04-0.96,0.73-1.77,1.69-1.77c0.04,0,0.08,0,0.12,0c0.54-0.04,1.04,0.19,1.35,0.62
			l-0.58,0.54c-0.15-0.23-0.42-0.38-0.73-0.38c-0.54,0.04-0.96,0.5-0.92,1.04c0.04,0.5,0.42,0.89,0.92,0.92
			c0.31,0,0.58-0.15,0.73-0.38l0.58,0.54c-0.31,0.42-0.81,0.65-1.35,0.62c-0.96,0.04-1.77-0.69-1.81-1.65
			C123.19,51.57,123.19,51.53,123.19,51.53"/>
		<path class="st0" d="M126.69,51.53c0-1,0.81-1.81,1.81-1.81s1.81,0.81,1.81,1.81c0,1-0.81,1.81-1.81,1.81l0,0
			c-0.96,0.04-1.77-0.69-1.81-1.65C126.69,51.61,126.69,51.57,126.69,51.53 M129.38,51.53c-0.08-0.5-0.5-0.81-1-0.77
			c-0.5,0.08-0.81,0.5-0.77,1c0.08,0.42,0.42,0.77,0.89,0.77c0.5,0,0.89-0.42,0.89-0.92C129.38,51.57,129.38,51.53,129.38,51.53"/>
		<path class="st0" d="M133.27,53.23v-2.08c0.04-0.31-0.15-0.58-0.46-0.62c-0.08,0-0.12,0-0.19,0c-0.31,0-0.58,0.15-0.77,0.38v2.31
			h-0.89V49.8h0.89v0.46c0.31-0.35,0.73-0.54,1.19-0.54c0.54-0.08,1.04,0.31,1.12,0.85c0,0.08,0,0.15,0,0.23v2.42L133.27,53.23
			L133.27,53.23z"/>
		<path class="st0" d="M135.23,52.38v-1.77h-0.58v-0.77h0.58v-0.92h0.92v0.92h0.69v0.77h-0.69v1.54c0,0.19,0.12,0.38,0.31,0.38
			c0.12,0,0.23-0.04,0.31-0.12l0.19,0.69c-0.23,0.15-0.46,0.23-0.73,0.23c-0.46,0.08-0.89-0.27-0.96-0.73
			C135.23,52.53,135.23,52.46,135.23,52.38"/>
		<path class="st0" d="M137.46,53.23V49.8h0.89v0.46c0.27-0.35,0.65-0.54,1.08-0.54v0.89c-0.08,0-0.15-0.04-0.23-0.04
			c-0.31,0-0.62,0.15-0.85,0.38v2.27H137.46z"/>
		<path class="st0" d="M139.77,51.53c0-1,0.81-1.81,1.81-1.81c1,0,1.81,0.81,1.81,1.81c0,1-0.81,1.81-1.81,1.81l0,0
			c-0.96,0.04-1.77-0.69-1.81-1.65C139.77,51.61,139.77,51.57,139.77,51.53 M142.47,51.53c-0.08-0.5-0.5-0.81-1-0.77
			c-0.5,0.08-0.81,0.5-0.77,1c0.08,0.42,0.42,0.77,0.89,0.77c0.5,0,0.89-0.42,0.89-0.92C142.47,51.57,142.47,51.53,142.47,51.53"/>
		<path class="st0" d="M145.89,53.23v-4.73h1.85c1.46,0,2.5,0.92,2.5,2.35c0,1.42-1.04,2.35-2.5,2.35L145.89,53.23z M149.24,50.88
			c0.04-0.77-0.5-1.42-1.27-1.46c-0.08,0-0.15,0-0.19,0h-0.85v2.92h0.85c0.77,0.04,1.42-0.58,1.46-1.35
			C149.24,50.99,149.24,50.92,149.24,50.88"/>
		<path class="st0" d="M150.7,51.53c-0.04-0.96,0.73-1.77,1.69-1.77c0.04,0,0.04,0,0.08,0c1,0,1.69,0.77,1.69,1.89v0.19h-2.54
			c0.08,0.46,0.5,0.81,1,0.77c0.35,0,0.65-0.12,0.92-0.35l0.38,0.58c-0.38,0.31-0.89,0.5-1.42,0.46c-0.96,0.04-1.77-0.69-1.81-1.62
			C150.7,51.61,150.7,51.57,150.7,51.53 M152.47,50.46c-0.46,0-0.81,0.35-0.85,0.77h1.69c0-0.42-0.35-0.77-0.77-0.77
			C152.51,50.46,152.47,50.46,152.47,50.46"/>
		<polygon class="st0" points="155.63,53.23 154.28,49.8 155.24,49.8 156.13,52.19 157.01,49.8 157.98,49.8 156.59,53.23 		"/>
		<path class="st0" d="M158.36,50.88c0-1.35,1.08-2.46,2.42-2.5c1.35,0,2.46,1.08,2.5,2.42c0,1.35-1.08,2.46-2.42,2.5h-0.04
			c-1.31,0.04-2.42-0.96-2.46-2.27C158.36,50.99,158.36,50.92,158.36,50.88 M162.25,50.88c-0.04-0.81-0.73-1.39-1.54-1.35
			c-0.81,0.04-1.39,0.73-1.35,1.54c0.04,0.77,0.69,1.35,1.42,1.35c0.77,0,1.42-0.62,1.42-1.42
			C162.25,50.96,162.25,50.92,162.25,50.88"/>
		<path class="st0" d="M164.87,52.8v1.73h-0.89V49.8h0.89v0.42c0.27-0.35,0.65-0.5,1.04-0.5c0.89,0,1.5,0.65,1.5,1.77
			c0,1.12-0.65,1.81-1.5,1.81C165.48,53.3,165.1,53.11,164.87,52.8 M166.48,51.53c0.04-0.5-0.27-0.92-0.77-0.96
			c-0.04,0-0.08,0-0.08,0c-0.31,0-0.58,0.15-0.77,0.38v1.19c0.19,0.23,0.46,0.38,0.77,0.38c0.5,0,0.89-0.42,0.89-0.89
			C166.48,51.57,166.48,51.53,166.48,51.53"/>
		<path class="st0" d="M167.79,52.76l0.38-0.62c0.35,0.27,0.73,0.46,1.19,0.46c0.38,0,0.58-0.15,0.58-0.38
			c0-0.58-2.04-0.12-2.04-1.46c0-0.58,0.5-1.08,1.39-1.08c0.5,0,1,0.15,1.39,0.46l-0.35,0.62c-0.27-0.27-0.65-0.38-1-0.38
			c-0.31,0-0.54,0.15-0.54,0.35c0,0.5,2.04,0.08,2.04,1.46c0,0.62-0.54,1.08-1.46,1.08C168.75,53.3,168.18,53.15,167.79,52.76"/>
		<rect x="173.26" y="48.53" class="st0" width="1" height="4.7"/>
		<path class="st0" d="M175.37,52.38v-1.77h-0.58v-0.77h0.58v-0.92h0.89v0.92h0.69v0.77h-0.69v1.54c0,0.19,0.12,0.38,0.31,0.38
			c0.12,0,0.23-0.04,0.31-0.12l0.19,0.69c-0.23,0.15-0.46,0.23-0.73,0.23c-0.46,0.08-0.89-0.27-0.96-0.73
			C175.37,52.53,175.37,52.46,175.37,52.38"/>
		<path class="st0" d="M179.68,53.23v-0.38c-0.27,0.31-0.65,0.46-1.08,0.42c-0.65,0.04-1.15-0.5-1.19-1.12l0,0
			c0-0.62,0.46-1.12,1.08-1.12c0.04,0,0.08,0,0.12,0c0.38-0.04,0.81,0.12,1.08,0.42v-0.46c0-0.35-0.31-0.58-0.73-0.58
			c-0.38,0-0.73,0.15-1,0.38l-0.35-0.62c0.42-0.35,0.96-0.54,1.5-0.54c0.77,0,1.5,0.31,1.5,1.31v2.23L179.68,53.23L179.68,53.23z
			 M179.68,52.42V52c-0.19-0.19-0.42-0.31-0.69-0.31c-0.35,0-0.65,0.19-0.65,0.5c0,0.31,0.31,0.5,0.65,0.5
			C179.26,52.73,179.53,52.65,179.68,52.42"/>
		<rect x="181.49" y="48.53" class="st0" width="0.89" height="4.7"/>
		<path class="st0" d="M183.18,48.92c0.04-0.31,0.27-0.5,0.58-0.5c0.27,0.04,0.46,0.23,0.5,0.5c0.04,0.31-0.19,0.54-0.5,0.58
			c-0.31,0.04-0.54-0.19-0.58-0.5C183.18,48.95,183.18,48.95,183.18,48.92 M183.26,49.8h0.89v3.43h-0.89V49.8z"/>
		<path class="st0" d="M187.11,53.23v-0.38c-0.27,0.31-0.65,0.46-1.08,0.42c-0.65,0.04-1.15-0.5-1.19-1.12l0,0
			c0-0.62,0.46-1.12,1.08-1.12c0.04,0,0.08,0,0.12,0c0.38-0.04,0.81,0.12,1.08,0.42v-0.46c0-0.35-0.31-0.58-0.73-0.58
			c-0.38,0-0.73,0.15-1,0.38l-0.35-0.62c0.42-0.35,0.96-0.54,1.5-0.54c0.77,0,1.5,0.31,1.5,1.31v2.23L187.11,53.23L187.11,53.23z
			 M187.11,52.42V52c-0.19-0.19-0.46-0.31-0.73-0.31c-0.35,0-0.65,0.19-0.65,0.5c0,0.31,0.31,0.5,0.65,0.5
			C186.65,52.73,186.92,52.65,187.11,52.42"/>
		<path class="st0" d="M131.81,10.89h-13.82c-0.35,0-0.62,0.27-0.62,0.62l0,0v31.83c0,0.35,0.27,0.58,0.62,0.62h0.04
			c8.04-0.35,14.39-6.97,14.39-15.01V11.51C132.42,11.16,132.15,10.89,131.81,10.89L131.81,10.89"/>
		<path class="st0" d="M153.44,10.89H137.5c-0.15,0-0.31,0.08-0.42,0.19c-0.12,0.12-0.15,0.27-0.15,0.42
			c0.35,8.04,6.97,14.39,15.01,14.39h1.5c0.85,0.04,1.46,0.73,1.42,1.58c-0.04,0.77-0.65,1.39-1.42,1.42H137.5
			c-0.35,0-0.62,0.27-0.62,0.62v13.82c0,0.35,0.27,0.62,0.62,0.62h15.93c9.12,0,16.51-7.39,16.51-16.51S162.56,10.89,153.44,10.89"
			/>
		<path class="st0" d="M187.8,11.09c-0.12-0.12-0.27-0.15-0.42-0.15h-0.04c-8.04,0.35-14.39,6.97-14.39,15.01v17.43
			c0,0.35,0.27,0.62,0.62,0.62h13.82c0.35,0,0.62-0.27,0.62-0.62V11.51C188,11.36,187.92,11.16,187.8,11.09"/>
		<rect x="117.38" y="48.53" class="st0" width="1" height="4.7"/>
		<path class="st0" d="M121.61,53.23v-2.08c0.04-0.31-0.15-0.58-0.46-0.62c-0.08,0-0.12,0-0.19,0c-0.31,0-0.58,0.15-0.77,0.38v2.31
			h-0.89V49.8h0.89v0.46c0.31-0.35,0.73-0.54,1.19-0.54c0.54-0.08,1.04,0.31,1.12,0.85c0,0.08,0,0.15,0,0.23v2.42L121.61,53.23
			L121.61,53.23z"/>
		<path class="st0" d="M123.19,51.53c-0.04-0.96,0.73-1.77,1.69-1.77c0.04,0,0.08,0,0.12,0c0.54-0.04,1.04,0.19,1.35,0.62
			l-0.58,0.54c-0.15-0.23-0.42-0.38-0.73-0.38c-0.54,0.04-0.96,0.5-0.92,1.04c0.04,0.5,0.42,0.89,0.92,0.92
			c0.31,0,0.58-0.15,0.73-0.38l0.58,0.54c-0.31,0.42-0.81,0.65-1.35,0.62c-0.96,0.04-1.77-0.69-1.81-1.65
			C123.19,51.57,123.19,51.53,123.19,51.53"/>
		<path class="st0" d="M126.69,51.53c0-1,0.81-1.81,1.81-1.81s1.81,0.81,1.81,1.81c0,1-0.81,1.81-1.81,1.81l0,0
			c-0.96,0.04-1.77-0.69-1.81-1.65C126.69,51.61,126.69,51.57,126.69,51.53 M129.38,51.53c-0.08-0.5-0.5-0.81-1-0.77
			c-0.5,0.08-0.81,0.5-0.77,1c0.08,0.42,0.42,0.77,0.89,0.77c0.5,0,0.89-0.42,0.89-0.92C129.38,51.57,129.38,51.53,129.38,51.53"/>
		<path class="st0" d="M133.27,53.23v-2.08c0.04-0.31-0.15-0.58-0.46-0.62c-0.08,0-0.12,0-0.19,0c-0.31,0-0.58,0.15-0.77,0.38v2.31
			h-0.89V49.8h0.89v0.46c0.31-0.35,0.73-0.54,1.19-0.54c0.54-0.08,1.04,0.31,1.12,0.85c0,0.08,0,0.15,0,0.23v2.42L133.27,53.23
			L133.27,53.23z"/>
		<path class="st0" d="M135.23,52.38v-1.77h-0.58v-0.77h0.58v-0.92h0.92v0.92h0.69v0.77h-0.69v1.54c0,0.19,0.12,0.38,0.31,0.38
			c0.12,0,0.23-0.04,0.31-0.12l0.19,0.69c-0.23,0.15-0.46,0.23-0.73,0.23c-0.46,0.08-0.89-0.27-0.96-0.73
			C135.23,52.53,135.23,52.46,135.23,52.38"/>
		<path class="st0" d="M137.46,53.23V49.8h0.89v0.46c0.27-0.35,0.65-0.54,1.08-0.54v0.89c-0.08,0-0.15-0.04-0.23-0.04
			c-0.31,0-0.62,0.15-0.85,0.38v2.27H137.46z"/>
		<path class="st0" d="M139.77,51.53c0-1,0.81-1.81,1.81-1.81c1,0,1.81,0.81,1.81,1.81c0,1-0.81,1.81-1.81,1.81l0,0
			c-0.96,0.04-1.77-0.69-1.81-1.65C139.77,51.61,139.77,51.57,139.77,51.53 M142.47,51.53c-0.08-0.5-0.5-0.81-1-0.77
			c-0.5,0.08-0.81,0.5-0.77,1c0.08,0.42,0.42,0.77,0.89,0.77c0.5,0,0.89-0.42,0.89-0.92C142.47,51.57,142.47,51.53,142.47,51.53"/>
		<path class="st0" d="M145.89,53.23v-4.73h1.85c1.46,0,2.5,0.92,2.5,2.35c0,1.42-1.04,2.35-2.5,2.35L145.89,53.23z M149.24,50.88
			c0.04-0.77-0.5-1.42-1.27-1.46c-0.08,0-0.15,0-0.19,0h-0.85v2.92h0.85c0.77,0.04,1.42-0.58,1.46-1.35
			C149.24,50.99,149.24,50.92,149.24,50.88"/>
		<path class="st0" d="M150.7,51.53c-0.04-0.96,0.73-1.77,1.69-1.77c0.04,0,0.04,0,0.08,0c1,0,1.69,0.77,1.69,1.89v0.19h-2.54
			c0.08,0.46,0.5,0.81,1,0.77c0.35,0,0.65-0.12,0.92-0.35l0.38,0.58c-0.38,0.31-0.89,0.5-1.42,0.46c-0.96,0.04-1.77-0.69-1.81-1.62
			C150.7,51.61,150.7,51.57,150.7,51.53 M152.47,50.46c-0.46,0-0.81,0.35-0.85,0.77h1.69c0-0.42-0.35-0.77-0.77-0.77
			C152.51,50.46,152.47,50.46,152.47,50.46"/>
		<polygon class="st0" points="155.63,53.23 154.28,49.8 155.24,49.8 156.13,52.19 157.01,49.8 157.98,49.8 156.59,53.23 		"/>
		<path class="st0" d="M158.36,50.88c0-1.35,1.08-2.46,2.42-2.5c1.35,0,2.46,1.08,2.5,2.42c0,1.35-1.08,2.46-2.42,2.5h-0.04
			c-1.31,0.04-2.42-0.96-2.46-2.27C158.36,50.99,158.36,50.92,158.36,50.88 M162.25,50.88c-0.04-0.81-0.73-1.39-1.54-1.35
			c-0.81,0.04-1.39,0.73-1.35,1.54c0.04,0.77,0.69,1.35,1.42,1.35c0.77,0,1.42-0.62,1.42-1.42
			C162.25,50.96,162.25,50.92,162.25,50.88"/>
		<path class="st0" d="M164.87,52.8v1.73h-0.89V49.8h0.89v0.42c0.27-0.35,0.65-0.5,1.04-0.5c0.89,0,1.5,0.65,1.5,1.77
			c0,1.12-0.65,1.81-1.5,1.81C165.48,53.3,165.1,53.11,164.87,52.8 M166.48,51.53c0.04-0.5-0.27-0.92-0.77-0.96
			c-0.04,0-0.08,0-0.08,0c-0.31,0-0.58,0.15-0.77,0.38v1.19c0.19,0.23,0.46,0.38,0.77,0.38c0.5,0,0.89-0.42,0.89-0.89
			C166.48,51.57,166.48,51.53,166.48,51.53"/>
		<path class="st0" d="M167.79,52.76l0.38-0.62c0.35,0.27,0.73,0.46,1.19,0.46c0.38,0,0.58-0.15,0.58-0.38
			c0-0.58-2.04-0.12-2.04-1.46c0-0.58,0.5-1.08,1.39-1.08c0.5,0,1,0.15,1.39,0.46l-0.35,0.62c-0.27-0.27-0.65-0.38-1-0.38
			c-0.31,0-0.54,0.15-0.54,0.35c0,0.5,2.04,0.08,2.04,1.46c0,0.62-0.54,1.08-1.46,1.08C168.75,53.3,168.18,53.15,167.79,52.76"/>
		<rect x="173.26" y="48.53" class="st0" width="1" height="4.7"/>
		<path class="st0" d="M175.37,52.38v-1.77h-0.58v-0.77h0.58v-0.92h0.89v0.92h0.69v0.77h-0.69v1.54c0,0.19,0.12,0.38,0.31,0.38
			c0.12,0,0.23-0.04,0.31-0.12l0.19,0.69c-0.23,0.15-0.46,0.23-0.73,0.23c-0.46,0.08-0.89-0.27-0.96-0.73
			C175.37,52.53,175.37,52.46,175.37,52.38"/>
		<path class="st0" d="M179.68,53.23v-0.38c-0.27,0.31-0.65,0.46-1.08,0.42c-0.65,0.04-1.15-0.5-1.19-1.12l0,0
			c0-0.62,0.46-1.12,1.08-1.12c0.04,0,0.08,0,0.12,0c0.38-0.04,0.81,0.12,1.08,0.42v-0.46c0-0.35-0.31-0.58-0.73-0.58
			c-0.38,0-0.73,0.15-1,0.38l-0.35-0.62c0.42-0.35,0.96-0.54,1.5-0.54c0.77,0,1.5,0.31,1.5,1.31v2.23L179.68,53.23L179.68,53.23z
			 M179.68,52.42V52c-0.19-0.19-0.42-0.31-0.69-0.31c-0.35,0-0.65,0.19-0.65,0.5c0,0.31,0.31,0.5,0.65,0.5
			C179.26,52.73,179.53,52.65,179.68,52.42"/>
		<rect x="181.49" y="48.53" class="st0" width="0.89" height="4.7"/>
		<path class="st0" d="M183.18,48.92c0.04-0.31,0.27-0.5,0.58-0.5c0.27,0.04,0.46,0.23,0.5,0.5c0.04,0.31-0.19,0.54-0.5,0.58
			c-0.31,0.04-0.54-0.19-0.58-0.5C183.18,48.95,183.18,48.95,183.18,48.92 M183.26,49.8h0.89v3.43h-0.89V49.8z"/>
		<path class="st0" d="M187.11,53.23v-0.38c-0.27,0.31-0.65,0.46-1.08,0.42c-0.65,0.04-1.15-0.5-1.19-1.12l0,0
			c0-0.62,0.46-1.12,1.08-1.12c0.04,0,0.08,0,0.12,0c0.38-0.04,0.81,0.12,1.08,0.42v-0.46c0-0.35-0.31-0.58-0.73-0.58
			c-0.38,0-0.73,0.15-1,0.38l-0.35-0.62c0.42-0.35,0.96-0.54,1.5-0.54c0.77,0,1.5,0.31,1.5,1.31v2.23L187.11,53.23L187.11,53.23z
			 M187.11,52.42V52c-0.19-0.19-0.46-0.31-0.73-0.31c-0.35,0-0.65,0.19-0.65,0.5c0,0.31,0.31,0.5,0.65,0.5
			C186.65,52.73,186.92,52.65,187.11,52.42"/>
		<path class="st0" d="M110.14,25.48c-0.54,0.23-4.31,2.69-6.73,2.42c-1.92-0.19-1.35-1.54-1.35-1.54l0,0
			C112.6,15.09,106.83,0.12,105.72,0c-1.73-0.15,0.5,6.73-2.23,14.7c-0.58,2.12-9.2,19.09-13.59-4.31c0,0-0.08-1.62-1.12-1.65
			c-0.85,0-1.15,0.81-1.15,1.81c0,0,1.58,18.67-15.62,18.47c-17.2,0.19-15.62-18.47-15.62-18.47c-0.04-1-0.31-1.85-1.15-1.81
			c-1.04,0.04-1.12,1.65-1.12,1.65c-4.46,23.4-13.08,6.43-13.66,4.31C37.71,6.74,39.94-0.15,38.21,0
			c-1.12,0.12-6.89,15.09,3.66,26.36l0,0c0,0,0.58,1.35-1.35,1.54c-2.46,0.27-6.2-2.19-6.73-2.42c-2.27-1-2.42,1.15-0.42,2.89
			c0,0,6.97,6.2,15.55,3.39c1.35,0.73,2.77,1.39,4.19,1.92c-4.66,2.5-7.58,5.31-6.93,6.93c0.62,1.5,4.23,1.5,8.89,0.23
			c-1.04,2.08-1.58,4.39-1.62,6.7c0,9.08,9.43,12.47,18.51,12.47s18.51-3.39,18.51-12.47c-0.04-2.46-0.65-4.85-1.77-7.04
			c5.2,1.62,9.39,1.73,10.08,0.12c0.69-1.62-2.46-4.58-7.35-7.16c1.23-0.5,2.42-1.08,3.62-1.69c8.58,2.85,15.55-3.39,15.55-3.39
			C112.53,26.63,112.37,24.48,110.14,25.48 M76.89,36.79c0.81,0,1.5,0.65,1.5,1.5c0,0.85-0.65,1.5-1.5,1.5c-0.85,0-1.5-0.65-1.5-1.5
			l0,0C75.39,37.49,76.04,36.79,76.89,36.79 M67,36.87c0.77,0,1.42,0.65,1.42,1.42s-0.65,1.42-1.42,1.42s-1.42-0.65-1.42-1.42
			S66.23,36.87,67,36.87L67,36.87 M58.76,52.84c0,0-2.69-3.43,0.19-9.7c0,0,2.66-5.62,2.08-0.69c0,0-0.35,3.46-0.27,4.77
			c0.08,1.31,0.58,3.96,4,7.47C64.77,54.69,60.96,55.34,58.76,52.84 M75.77,54.77c-0.12,0-0.23,0-0.35,0h-0.15h-0.15
			c-0.23,0-0.5-0.04-0.62-0.08l-0.31-0.04l-0.15-0.04l-0.23-0.04l-0.27-0.04l-0.23-0.04l-0.23-0.04h-0.12h-0.19
			c-0.27-0.04-0.54-0.04-0.77-0.04h-0.12c-0.19,0-0.42,0-0.65,0.04H71h-0.19h-0.12l-0.23,0.04l-0.23,0.04l-0.27,0.04l-0.23,0.04
			l-0.15,0.04l-0.31,0.04c-0.08,0-0.38,0.04-0.58,0.08h-0.15h-0.15c-0.12,0-0.23,0-0.35,0c-0.23,0-0.46-0.04-0.69-0.12
			c-1.58-0.38-2.85-1.58-3.35-3.12c-0.04-0.12-0.08-0.23-0.08-0.35l-0.04-0.23c-0.04-0.27-0.08-0.54-0.08-0.81
			c0-3.27,2.92-4.43,3.54-4.96c2.39-2.08,2.96-2.66,4.54-2.66s2.16,0.54,4.54,2.66c0.62,0.54,3.54,1.73,3.54,4.96
			c0,0.27-0.04,0.54-0.08,0.81c0,0.08-0.04,0.15-0.04,0.23c-0.04,0.12-0.04,0.23-0.08,0.35C79.28,53.34,77.66,54.65,75.77,54.77
			 M85.13,52.84c-2.19,2.5-6.04,1.85-6.04,1.85c3.43-3.5,3.93-6.12,4-7.47c0.08-1.35-0.27-4.77-0.27-4.77
			c-0.54-4.93,2.08,0.69,2.08,0.69C87.86,49.46,85.13,52.84,85.13,52.84"/>
		<path class="st0" d="M68.46,48.76c-0.77,0-1.42,0.65-1.42,1.42s0.65,1.42,1.42,1.42s1.42-0.65,1.42-1.42l0,0
			C69.89,49.38,69.27,48.76,68.46,48.76"/>
		<path class="st0" d="M75.43,48.69c-0.81,0-1.5,0.65-1.5,1.5c0,0.81,0.65,1.5,1.5,1.5s1.5-0.65,1.5-1.5l0,0
			C76.93,49.34,76.24,48.69,75.43,48.69"/>
	</g>
</g>
</svg>
