<?xml version="1.0" encoding="utf-8"?>
<!-- Generator: Adobe Illustrator 24.1.0, SVG Export Plug-In . SVG Version: 6.00 Build 0)  -->
<svg version="1.1" id="Livello_1" xmlns="https://www.w3.org/2000/svg" xmlns:xlink="https://www.w3.org/1999/xlink" x="0px" y="0px"
	 viewBox="0 0 220 60" style="enable-background:new 0 0 220 60;" xml:space="preserve" width="200px" height="60px">
<style type="text/css">
	.st0{fill:#FFFFFF;}
</style>
<g>
	<path class="st0" d="M19.28,1.67c0.59,0.68,1.3,1.28,1.75,2.04c6.29,10.46,12.57,20.94,18.8,31.44c0.62,1.04,1.15,1.42,2.44,1.1
		c7.74-1.94,15.5-3.76,23.49-5.68c-0.32-0.52-0.55-0.95-0.83-1.35c-2.35-3.34-4.71-6.68-7.07-10.02c-0.88-1.25-0.71-1.75,0.76-2
		c3.76-0.65,7.53-1.25,11.29-1.88c1.29-0.22,2.23,0.18,3.06,1.22c3.23,4.04,6.51,8.04,9.77,12.05c0,0.17,0,0.35,0,0.52
		c-3.63,1.02-7.26,2.03-10.89,3.05c-0.4,0.11-0.79,0.24-1.36,0.42c1.22,1.65,2.33,3.14,3.43,4.64c2.15,2.9,4.32,5.79,6.45,8.71
		c0.96,1.31,0.87,1.69-0.69,2.24c-9.03,3.25-18.06,6.5-27.11,9.69c-2.57,0.91-3.22,0.65-4.59-1.71c-2.79-4.81-5.53-9.66-8.22-14.53
		c-0.52-0.93-0.98-1.16-2.04-0.87c-5.24,1.41-10.5,2.74-15.76,4.06c-2.39,0.6-3.63,0.01-4.64-2.17C11.8,30.6,6.25,18.56,0.7,6.53
		C0.55,6.22,0.41,5.9,0.29,5.57c-0.65-1.83-0.22-2.42,1.75-2.57c4.51-0.34,9.02-0.71,13.52-1.08c0.29-0.02,0.56-0.17,0.85-0.26
		C17.36,1.67,18.32,1.67,19.28,1.67z M37.35,37.38c-0.29-0.61-0.44-1-0.65-1.37C30.71,25.67,24.71,15.33,18.75,4.97
		c-0.46-0.79-0.97-1.08-1.87-0.99c-3.16,0.31-6.32,0.56-9.48,0.85c-1.19,0.11-2.37,0.26-3.7,0.4C3.94,5.8,4.07,6.16,4.23,6.5
		c5.45,11.26,10.91,22.52,16.34,33.79c0.38,0.78,0.78,0.97,1.62,0.73c1.63-0.46,3.29-0.78,4.94-1.18
		C30.46,39.05,33.78,38.24,37.35,37.38z M42.42,39.54c2.82,4.78,5.5,9.39,8.28,13.95c0.21,0.34,1.18,0.5,1.67,0.34
		c7.74-2.58,15.46-5.22,23.19-7.86c0.38-0.13,0.74-0.32,1.26-0.55c-0.4-0.59-0.67-1.02-0.97-1.43c-2.46-3.38-4.95-6.73-7.37-10.14
		c-0.52-0.73-0.98-0.88-1.83-0.65c-5.91,1.59-11.84,3.11-17.76,4.66C46.8,38.41,44.71,38.94,42.42,39.54z M60.97,19.19
		c0.08,0.32,0.07,0.51,0.16,0.64c2.32,3.2,4.63,6.41,6.99,9.57c0.19,0.26,0.83,0.36,1.2,0.28c2.41-0.54,4.8-1.14,7.2-1.74
		c0.76-0.19,1.52-0.42,2.44-0.68c-0.41-0.57-0.64-0.94-0.9-1.27c-1.66-2.12-3.47-4.14-4.96-6.37c-1.23-1.84-2.54-2.45-4.72-1.84
		C65.98,18.44,63.48,18.73,60.97,19.19z"/>
	<g>
		<path class="st0" d="M95.12,28.36h4.27V48.3h-4.27V28.36z"/>
		<path class="st0" d="M110.65,48.3l-0.25-1.38h-0.08c-0.9,1.1-2.3,1.69-3.93,1.69c-2.78,0-4.44-2.02-4.44-4.21
			c0-3.57,3.2-5.28,8.06-5.25v-0.2c0-0.73-0.39-1.77-2.5-1.77c-1.4,0-2.89,0.48-3.79,1.04l-0.79-2.75c0.95-0.53,2.84-1.21,5.34-1.21
			c4.58,0,6.04,2.7,6.04,5.93v4.77c0,1.32,0.06,2.58,0.2,3.34H110.65z M110.14,41.81c-2.25-0.03-3.99,0.51-3.99,2.16
			c0,1.1,0.73,1.63,1.69,1.63c1.07,0,1.94-0.7,2.22-1.57c0.06-0.22,0.08-0.48,0.08-0.73V41.81z"/>
		<path class="st0" d="M117.67,39.09c0-2.02-0.06-3.34-0.11-4.52h3.68l0.14,2.53h0.11c0.7-1.99,2.39-2.84,3.71-2.84
			c0.39,0,0.59,0,0.9,0.06v4.02c-0.31-0.06-0.67-0.11-1.15-0.11c-1.57,0-2.64,0.84-2.92,2.16c-0.06,0.28-0.08,0.62-0.08,0.95v6.97
			h-4.27V39.09z"/>
		<path class="st0" d="M135.84,48.3l-0.25-1.38h-0.08c-0.9,1.1-2.3,1.69-3.93,1.69c-2.78,0-4.44-2.02-4.44-4.21
			c0-3.57,3.2-5.28,8.06-5.25v-0.2c0-0.73-0.39-1.77-2.5-1.77c-1.4,0-2.89,0.48-3.79,1.04l-0.79-2.75c0.95-0.53,2.84-1.21,5.34-1.21
			c4.58,0,6.04,2.7,6.04,5.93v4.77c0,1.32,0.06,2.58,0.2,3.34H135.84z M135.33,41.81c-2.25-0.03-3.99,0.51-3.99,2.16
			c0,1.1,0.73,1.63,1.69,1.63c1.07,0,1.94-0.7,2.22-1.57c0.06-0.22,0.08-0.48,0.08-0.73V41.81z"/>
		<path class="st0" d="M145.69,34.57l1.85,6.38c0.34,1.15,0.59,2.25,0.79,3.34h0.08c0.22-1.12,0.45-2.16,0.76-3.34l1.77-6.38h4.49
			l-5.11,13.73h-4.27l-5-13.73H145.69z"/>
		<path class="st0" d="M160.27,42.79c0.14,1.77,1.88,2.61,3.88,2.61c1.46,0,2.64-0.2,3.79-0.56l0.56,2.89
			c-1.4,0.56-3.12,0.84-4.97,0.84c-4.66,0-7.33-2.7-7.33-6.99c0-3.48,2.16-7.33,6.94-7.33c4.44,0,6.12,3.45,6.12,6.85
			c0,0.73-0.08,1.38-0.14,1.69H160.27z M165.29,39.87c0-1.04-0.45-2.78-2.42-2.78c-1.8,0-2.53,1.63-2.64,2.78H165.29z"/>
		<path class="st0" d="M171.81,28.36h4.27V48.3h-4.27V28.36z"/>
		<path class="st0" d="M191.6,28.36v16.43c0,1.21,0.03,2.58,0.11,3.51h-2.22l-0.11-2.36h-0.06c-0.76,1.52-2.42,2.67-4.63,2.67
			c-3.29,0-5.81-2.78-5.81-6.91c-0.03-4.52,2.78-7.3,6.09-7.3c2.08,0,3.48,0.98,4.1,2.08h0.06v-8.12H191.6z M189.13,40.24
			c0-0.31-0.03-0.73-0.11-1.04c-0.37-1.57-1.71-2.86-3.57-2.86c-2.56,0-4.07,2.25-4.07,5.25c0,2.75,1.35,5.03,4.02,5.03
			c1.66,0,3.17-1.1,3.62-2.95c0.08-0.34,0.11-0.67,0.11-1.07V40.24z"/>
		<path class="st0" d="M203.23,48.3l-0.2-1.71h-0.08c-0.76,1.07-2.22,2.02-4.16,2.02c-2.75,0-4.16-1.94-4.16-3.9
			c0-3.29,2.92-5.08,8.17-5.06v-0.28c0-1.12-0.31-3.15-3.09-3.15c-1.26,0-2.58,0.39-3.54,1.01l-0.56-1.63
			c1.12-0.73,2.75-1.21,4.47-1.21c4.16,0,5.17,2.84,5.17,5.56v5.08c0,1.18,0.06,2.33,0.22,3.26H203.23z M202.86,41.36
			c-2.7-0.06-5.76,0.42-5.76,3.06c0,1.6,1.07,2.36,2.33,2.36c1.77,0,2.89-1.12,3.29-2.27c0.08-0.25,0.14-0.53,0.14-0.79V41.36z"/>
		<path class="st0" d="M209.91,34.71l2.98,8.03c0.31,0.9,0.65,1.97,0.87,2.78h0.06c0.25-0.81,0.53-1.85,0.87-2.84l2.7-7.98h2.61
			l-3.71,9.69c-1.77,4.66-2.98,7.05-4.66,8.51c-1.21,1.07-2.42,1.49-3.03,1.6l-0.62-2.08c0.62-0.2,1.43-0.59,2.16-1.21
			c0.67-0.53,1.52-1.49,2.08-2.75c0.11-0.25,0.2-0.45,0.2-0.59c0-0.14-0.06-0.34-0.17-0.65l-5.03-12.53H209.91z"/>
	</g>
</g>
</svg>
