<?xml version="1.0" encoding="utf-8"?>
<!-- Generator: Adobe Illustrator 24.1.0, SVG Export Plug-In . SVG Version: 6.00 Build 0)  -->
<svg version="1.1" id="Livello_1" xmlns="https://www.w3.org/2000/svg" xmlns:xlink="https://www.w3.org/1999/xlink" x="0px" y="0px"
	 viewBox="0 0 220 60" style="enable-background:new 0 0 220 60;" xml:space="preserve" width="200px" height="60px">
<style type="text/css">
	.st0{fill:#FFFFFF;}
</style>
<g>
	<g>
		<path class="st0" d="M86.22,37.4v-8.13c0-1.52-0.82-2.1-2.13-2.1c-1.25,0-1.89,0.64-2.35,1.16v9.08h-5.48V22.69h5.48v1.68
			c0.85-0.97,2.47-2.04,5.06-2.04c3.41,0,4.9,2.07,4.9,4.63V37.4H86.22z"/>
		<path class="st0" d="M94.04,30.03c0-4.11,3.05-7.71,8.25-7.71c5.24,0,8.28,3.59,8.28,7.71s-3.05,7.74-8.28,7.74
			C97.09,37.77,94.04,34.15,94.04,30.03z M104.95,30.03c0-1.61-0.94-2.86-2.65-2.86c-1.68,0-2.62,1.25-2.62,2.86
			c0,1.64,0.94,2.89,2.62,2.89C104,32.93,104.95,31.68,104.95,30.03z"/>
		<path class="st0" d="M122.55,37.4v-1.55c-1.25,1.4-2.65,1.92-4.14,1.92c-3.56,0-6.49-2.68-6.49-7.74c0-4.87,2.86-7.71,6.49-7.71
			c1.49,0,2.98,0.52,4.14,1.92v-7.16h5.48V37.4H122.55z M122.55,31.92v-3.78c-0.52-0.64-1.55-0.97-2.28-0.97
			c-1.49,0-2.74,1.04-2.74,2.86c0,1.83,1.25,2.89,2.74,2.89C121,32.93,122.03,32.56,122.55,31.92z"/>
		<path class="st0" d="M130.37,30.03c0-4.26,3.26-7.71,8.01-7.71c4.32,0,7.64,3.11,7.64,8.28v1.13h-9.99
			c0.3,0.94,1.37,1.86,3.17,1.86c0.82,0,2.65-0.4,3.38-1.04l2.25,3.38c-1.46,1.25-4.08,1.83-6.27,1.83
			C133.97,37.77,130.37,34.88,130.37,30.03z M138.38,26.5c-1.68,0-2.22,1.1-2.41,1.77h4.84C140.67,27.63,140.15,26.5,138.38,26.5z"
			/>
		<path class="st0" d="M143.47,42.37l1.31-4.05c0.61,0.46,0.97,0.58,1.83,0.58c1.01,0,1.61-0.73,1.61-2.13V22.69h5.48v14.07
			c0,3.78-1.86,6.61-6.12,6.61C145.36,43.37,144.66,43.1,143.47,42.37z M147.89,18.55c0-1.71,1.37-3.08,3.08-3.08
			s3.08,1.37,3.08,3.08s-1.37,3.08-3.08,3.08S147.89,20.26,147.89,18.55z"/>
		<path class="st0" d="M155.8,35.52l2.19-3.69c1.16,0.91,3.65,1.86,5.3,1.86c1.13,0,1.46-0.27,1.46-0.64c0-1.4-8.34,0.4-8.34-5.7
			c0-2.65,2.31-5.03,6.58-5.03c2.47,0,4.66,0.76,6.37,1.89l-2.01,3.56c-0.91-0.76-2.62-1.52-4.32-1.52c-0.79,0-1.37,0.3-1.37,0.64
			c0,1.22,8.35-0.3,8.35,5.82c0,2.92-2.62,5.06-6.97,5.06C160.31,37.77,157.39,36.83,155.8,35.52z"/>
		<path class="st0" d="M183.7,37.4v-2.19c-1.1,1.49-2.89,2.56-4.96,2.56c-3.84,0-6.55-2.92-6.55-7.71c0-4.72,2.71-7.74,6.55-7.74
			c1.98,0,3.78,0.97,4.96,2.59v-7.83h2.28V37.4H183.7z M183.7,33.38v-6.64c-0.79-1.28-2.59-2.38-4.39-2.38
			c-2.98,0-4.75,2.44-4.75,5.7c0,3.26,1.77,5.66,4.75,5.66C181.11,35.73,182.91,34.66,183.7,33.38z"/>
		<path class="st0" d="M200.91,37.4v-2.19c-1.1,1.49-2.89,2.56-4.96,2.56c-3.84,0-6.55-2.92-6.55-7.71c0-4.72,2.71-7.74,6.55-7.74
			c1.98,0,3.78,0.97,4.96,2.59v-2.22h2.28V37.4H200.91z M200.91,33.38v-6.64c-0.79-1.28-2.59-2.38-4.39-2.38
			c-2.98,0-4.75,2.44-4.75,5.7c0,3.26,1.77,5.66,4.75,5.66C198.32,35.73,200.11,34.66,200.91,33.38z"/>
		<path class="st0" d="M207,41.09c0.34,0.15,0.88,0.24,1.25,0.24c1.01,0,1.68-0.34,2.19-1.55l0.97-2.22l-6.15-14.86h2.5l4.87,12.06
			l4.9-12.06H220l-7.37,17.69c-0.88,2.13-2.38,2.95-4.32,2.98c-0.49,0-1.25-0.09-1.64-0.21L207,41.09z"/>
	</g>
	<g>
		<path class="st0" d="M68.23,19.58L51.51,9.92c-0.27-0.16-0.61-0.16-0.89,0l-16.28,9.4l-16.28-9.4c-0.27-0.16-0.61-0.16-0.89,0
			L0.44,19.58C0.17,19.73,0,20.03,0,20.34v19.31c0,0.32,0.17,0.61,0.44,0.77l16.73,9.66c0.27,0.16,0.61,0.16,0.89,0l16.28-9.4
			l16.28,9.4c0.14,0.08,0.29,0.12,0.44,0.12c0.15,0,0.31-0.04,0.44-0.12l16.73-9.66c0.27-0.16,0.44-0.45,0.44-0.77V20.34
			C68.68,20.03,68.51,19.73,68.23,19.58z M51.07,48.29l-14.96-8.64l14.96-8.64l14.96,8.64L51.07,48.29z M33.9,38.89l-16.28,9.4
			L2.66,39.66l48.41-27.95l14.96,8.64L33.9,38.89L33.9,38.89z M17.61,11.71l14.96,8.64l-14.96,8.64L2.66,20.34L17.61,11.71z
			 M55.41,28.51l11.49-6.64v16.25L52.84,30L55.41,28.51z M15.84,30L1.77,38.12V21.88L15.84,30z"/>
		<g>
			<path class="st0" d="M62.58,33.33c0.3-0.08,0.47-0.39,0.39-0.68c-0.08-0.3-0.39-0.47-0.68-0.39c-0.3,0.08-0.47,0.39-0.39,0.68
				C61.98,33.23,62.29,33.41,62.58,33.33z M63.95,34.11c0.3-0.08,0.47-0.39,0.39-0.68c-0.08-0.3-0.39-0.47-0.68-0.39
				c-0.3,0.08-0.47,0.39-0.39,0.68C63.34,34.02,63.65,34.19,63.95,34.11z M61.64,25.5c0.3-0.08,0.47-0.39,0.39-0.68
				c-0.08-0.3-0.39-0.47-0.68-0.39c-0.3,0.08-0.47,0.39-0.39,0.68C61.04,25.4,61.34,25.58,61.64,25.5z M64.74,32.75
				c0.3-0.08,0.47-0.39,0.39-0.68c-0.08-0.3-0.39-0.47-0.68-0.39c-0.3,0.08-0.47,0.39-0.39,0.68
				C64.13,32.65,64.44,32.83,64.74,32.75z M61.93,26.57c-0.3,0.08-0.47,0.39-0.39,0.68c0.08,0.3,0.39,0.47,0.68,0.39
				c0.3-0.08,0.47-0.39,0.39-0.68C62.53,26.67,62.23,26.5,61.93,26.57z M61.14,27.94c-0.3,0.08-0.47,0.39-0.39,0.68
				c0.08,0.3,0.39,0.47,0.68,0.39c0.3-0.08,0.47-0.39,0.39-0.68C61.74,28.04,61.44,27.86,61.14,27.94z M65.31,34.9
				c0.3-0.08,0.47-0.39,0.39-0.68c-0.08-0.3-0.39-0.47-0.68-0.39c-0.3,0.08-0.47,0.39-0.39,0.68C64.71,34.81,65.02,34.98,65.31,34.9
				z M62.01,31.17c0.3-0.08,0.47-0.39,0.39-0.68c-0.08-0.3-0.39-0.47-0.68-0.39c-0.3,0.08-0.47,0.39-0.39,0.68
				C61.4,31.07,61.71,31.25,62.01,31.17z M61.22,32.54c0.3-0.08,0.47-0.39,0.39-0.68c-0.08-0.3-0.39-0.47-0.68-0.39
				c-0.3,0.08-0.47,0.39-0.39,0.68C60.61,32.44,60.92,32.62,61.22,32.54z M63.37,31.96c0.3-0.08,0.47-0.39,0.39-0.68
				c-0.08-0.3-0.39-0.47-0.68-0.39c-0.3,0.08-0.47,0.39-0.39,0.68C62.77,31.86,63.07,32.04,63.37,31.96z M63.79,24.92
				c0.3-0.08,0.47-0.39,0.39-0.68c-0.08-0.3-0.39-0.47-0.68-0.39c-0.3,0.08-0.47,0.39-0.39,0.68C63.19,24.82,63.5,25,63.79,24.92z
				 M65.37,22.19c0.29-0.08,0.47-0.38,0.39-0.68l-0.93,0.54C64.97,22.18,65.17,22.24,65.37,22.19z M64.58,23.55
				c0.3-0.08,0.47-0.39,0.39-0.68c-0.08-0.3-0.39-0.47-0.68-0.39c-0.3,0.08-0.47,0.39-0.39,0.68
				C63.98,23.46,64.28,23.63,64.58,23.55z M62.43,24.13c0.3-0.08,0.47-0.39,0.39-0.68c-0.02-0.07-0.05-0.13-0.09-0.18l-0.96,0.55
				C61.88,24.06,62.16,24.2,62.43,24.13z M67.1,28.65c0.3-0.08,0.47-0.39,0.39-0.68c-0.08-0.3-0.39-0.47-0.68-0.39
				c-0.3,0.08-0.47,0.39-0.39,0.68C66.5,28.55,66.8,28.73,67.1,28.65z M66.03,28.94c-0.3,0.08-0.47,0.39-0.39,0.68
				c0.08,0.3,0.39,0.47,0.68,0.39c0.3-0.08,0.47-0.39,0.39-0.68C66.63,29.04,66.32,28.86,66.03,28.94z M66.89,32.17
				c0.3-0.08,0.47-0.39,0.39-0.68c-0.08-0.3-0.39-0.47-0.68-0.39c-0.3,0.08-0.47,0.39-0.39,0.68
				C66.29,32.07,66.59,32.25,66.89,32.17z M66.24,25.42c-0.3,0.08-0.47,0.39-0.39,0.68c0.08,0.3,0.39,0.47,0.68,0.39
				c0.3-0.08,0.47-0.39,0.39-0.68C66.84,25.52,66.53,25.34,66.24,25.42z M67.31,25.13c0.3-0.08,0.47-0.39,0.39-0.68
				c-0.08-0.3-0.39-0.47-0.68-0.39c-0.3,0.08-0.47,0.39-0.39,0.68C66.71,25.03,67.02,25.21,67.31,25.13z M62.72,25.21
				c-0.3,0.08-0.47,0.39-0.39,0.68c0.08,0.3,0.39,0.47,0.68,0.39c0.3-0.08,0.47-0.39,0.39-0.68C63.32,25.31,63.01,25.13,62.72,25.21
				z M58.49,30.96c0.3-0.08,0.47-0.39,0.39-0.68c-0.08-0.3-0.39-0.47-0.68-0.39c-0.3,0.08-0.47,0.39-0.39,0.68
				C57.88,30.86,58.19,31.04,58.49,30.96z M59.85,31.75c0.3-0.08,0.47-0.39,0.39-0.68c-0.08-0.3-0.39-0.47-0.68-0.39
				c-0.3,0.08-0.47,0.39-0.39,0.68C59.25,31.65,59.55,31.83,59.85,31.75z M60.06,28.23c0.3-0.08,0.47-0.39,0.39-0.68
				c-0.08-0.3-0.39-0.47-0.68-0.39c-0.3,0.08-0.47,0.39-0.39,0.68C59.46,28.13,59.76,28.31,60.06,28.23z M56.83,29.09
				c-0.3,0.08-0.47,0.39-0.39,0.68c0.08,0.3,0.39,0.47,0.68,0.39c0.3-0.08,0.47-0.39,0.39-0.68C57.43,29.19,57.13,29.02,56.83,29.09
				z M59.27,29.59c0.3-0.08,0.47-0.39,0.39-0.68c-0.08-0.3-0.39-0.47-0.68-0.39c-0.3,0.08-0.47,0.39-0.39,0.68
				C58.67,29.5,58.98,29.67,59.27,29.59z M66.74,22.98c0.3-0.08,0.47-0.39,0.39-0.68c-0.08-0.3-0.39-0.47-0.68-0.39
				c-0.3,0.08-0.47,0.39-0.39,0.68C66.13,22.88,66.44,23.06,66.74,22.98z M57.91,28.81c0.3-0.08,0.47-0.39,0.39-0.68
				c-0.08-0.3-0.39-0.47-0.68-0.39c-0.3,0.08-0.47,0.39-0.39,0.68C57.3,28.71,57.61,28.89,57.91,28.81z M65.81,32.46
				c-0.3,0.08-0.47,0.39-0.39,0.68c0.08,0.3,0.39,0.47,0.68,0.39c0.3-0.08,0.47-0.39,0.39-0.68C66.42,32.56,66.11,32.38,65.81,32.46
				z M62.51,28.73c-0.3,0.08-0.47,0.39-0.39,0.68c0.08,0.3,0.39,0.47,0.68,0.39c0.3-0.08,0.47-0.39,0.39-0.68
				C63.11,28.83,62.8,28.65,62.51,28.73z M66,35.3c0.08,0.3,0.39,0.47,0.68,0.39c0.3-0.08,0.47-0.39,0.39-0.68
				c-0.08-0.3-0.39-0.47-0.68-0.39C66.09,34.69,65.92,35,66,35.3z M65.74,27.86c0.3-0.08,0.47-0.39,0.39-0.68
				c-0.08-0.3-0.39-0.47-0.68-0.39c-0.3,0.08-0.47,0.39-0.39,0.68C65.13,27.77,65.44,27.94,65.74,27.86z M64.08,26
				c-0.3,0.08-0.47,0.39-0.39,0.68c0.08,0.3,0.39,0.47,0.68,0.39c0.3-0.08,0.47-0.39,0.39-0.68C64.69,26.09,64.38,25.92,64.08,26z
				 M63.87,29.52c-0.3,0.08-0.47,0.39-0.39,0.68c0.08,0.3,0.39,0.47,0.68,0.39c0.3-0.08,0.47-0.39,0.39-0.68
				C64.47,29.61,64.17,29.44,63.87,29.52z M63.29,27.36c-0.3,0.08-0.47,0.39-0.39,0.68c0.08,0.3,0.39,0.47,0.68,0.39
				c0.3-0.08,0.47-0.39,0.39-0.68C63.9,27.46,63.59,27.28,63.29,27.36z M60.64,30.38c0.3-0.08,0.47-0.39,0.39-0.68
				c-0.08-0.3-0.39-0.47-0.68-0.39c-0.3,0.08-0.47,0.39-0.39,0.68C60.04,30.29,60.34,30.46,60.64,30.38z M65.95,24.34
				c0.3-0.08,0.47-0.39,0.39-0.68c-0.08-0.3-0.39-0.47-0.68-0.39c-0.3,0.08-0.47,0.39-0.39,0.68
				C65.34,24.25,65.65,24.42,65.95,24.34z M64.87,24.63c-0.3,0.08-0.47,0.39-0.39,0.68c0.08,0.3,0.39,0.47,0.68,0.39
				c0.3-0.08,0.47-0.39,0.39-0.68C65.47,24.73,65.17,24.55,64.87,24.63z M64.66,28.15c-0.3,0.08-0.47,0.39-0.39,0.68
				c0.08,0.3,0.39,0.47,0.68,0.39c0.3-0.08,0.47-0.39,0.39-0.68C65.26,28.25,64.96,28.07,64.66,28.15z M64.84,30.99
				c0.08,0.3,0.39,0.47,0.68,0.39C65.82,31.3,66,31,65.92,30.7c-0.08-0.3-0.39-0.47-0.68-0.39C64.94,30.39,64.76,30.69,64.84,30.99z
				 M66.29,36.37c-0.08-0.3-0.39-0.47-0.68-0.39c-0.3,0.08-0.47,0.39-0.39,0.68c0.08,0.3,0.39,0.47,0.68,0.39
				C66.19,36.98,66.36,36.67,66.29,36.37z M64.81,37.35c-0.19,0.05-0.33,0.19-0.39,0.37l0.94,0.54c0.12-0.14,0.18-0.33,0.13-0.52
				C65.42,37.44,65.11,37.27,64.81,37.35z M63.45,36.56c-0.19,0.05-0.33,0.19-0.39,0.37L64,37.47c0.12-0.14,0.18-0.33,0.13-0.52
				C64.05,36.65,63.75,36.48,63.45,36.56z M67.65,37.16c-0.08-0.3-0.39-0.47-0.68-0.39c-0.3,0.08-0.47,0.39-0.39,0.68
				c0.08,0.3,0.39,0.47,0.68,0.39C67.55,37.77,67.73,37.46,67.65,37.16z M66.18,38.13c-0.19,0.05-0.33,0.19-0.39,0.37l0.94,0.54
				c0.12-0.14,0.18-0.33,0.13-0.52C66.78,38.23,66.48,38.05,66.18,38.13z M60.82,33.22c-0.08-0.3-0.39-0.47-0.68-0.39
				c-0.3,0.08-0.47,0.39-0.39,0.68c0.08,0.3,0.39,0.47,0.68,0.39C60.73,33.82,60.9,33.52,60.82,33.22z M60.72,34.98
				c-0.19,0.05-0.33,0.19-0.39,0.37l0.94,0.54c0.12-0.14,0.18-0.33,0.13-0.52C61.32,35.08,61.01,34.9,60.72,34.98z M63.55,34.8
				c-0.08-0.3-0.39-0.47-0.68-0.39c-0.3,0.08-0.47,0.39-0.39,0.68c0.08,0.3,0.39,0.47,0.68,0.39C63.46,35.4,63.63,35.09,63.55,34.8z
				 M62.19,34.01c-0.08-0.3-0.39-0.47-0.68-0.39c-0.3,0.08-0.47,0.39-0.39,0.68c0.08,0.3,0.39,0.47,0.68,0.39
				C62.09,34.61,62.27,34.31,62.19,34.01z M62.08,35.77c-0.19,0.05-0.33,0.19-0.39,0.37l0.94,0.54c0.12-0.14,0.18-0.33,0.13-0.52
				C62.69,35.87,62.38,35.69,62.08,35.77z M64.92,35.59c-0.08-0.3-0.39-0.47-0.68-0.39c-0.3,0.08-0.47,0.39-0.39,0.68
				c0.08,0.3,0.39,0.47,0.68,0.39C64.82,36.19,65,35.88,64.92,35.59z M67.6,26.21c-0.3,0.08-0.47,0.39-0.39,0.68
				c0.07,0.26,0.32,0.43,0.58,0.41v-1.11C67.73,26.19,67.67,26.19,67.6,26.21z M67.55,38.92c-0.19,0.05-0.33,0.19-0.39,0.37
				l0.63,0.37v-0.74C67.71,38.9,67.63,38.9,67.55,38.92z M67.79,29.05c0,0.01,0.01,0.01,0.01,0.02v-0.33
				C67.76,28.83,67.76,28.94,67.79,29.05z M67.48,20.53l-0.62,0.36c-0.04,0.1-0.05,0.22-0.02,0.34c0.08,0.3,0.39,0.47,0.68,0.39
				c0.11-0.03,0.2-0.09,0.27-0.16V20.7C67.71,20.61,67.6,20.55,67.48,20.53z M67.42,23.37c0.05,0.19,0.2,0.33,0.37,0.39V22.7
				C67.51,22.79,67.34,23.08,67.42,23.37z M67.39,29.73c-0.3,0.08-0.47,0.39-0.39,0.68c0.08,0.3,0.39,0.47,0.68,0.39
				c0.04-0.01,0.08-0.03,0.11-0.04v-0.99C67.67,29.71,67.53,29.69,67.39,29.73z M60.56,24.52l-0.35,0.2c0.02,0,0.04,0,0.06-0.01
				C60.39,24.68,60.49,24.61,60.56,24.52z M67.18,33.25c-0.3,0.08-0.47,0.39-0.39,0.68c0.08,0.3,0.39,0.47,0.68,0.39
				c0.14-0.04,0.25-0.13,0.32-0.24v-0.6C67.66,33.29,67.42,33.18,67.18,33.25z M67.57,32.57c0.04,0.13,0.12,0.24,0.22,0.31v-0.91
				C67.61,32.1,67.51,32.33,67.57,32.57z M67.36,36.09c0.06,0.21,0.23,0.36,0.43,0.4V35.4c-0.01,0-0.02,0-0.04,0.01
				C67.46,35.48,67.28,35.79,67.36,36.09z M52.52,30.25c-0.19,0.05-0.33,0.19-0.39,0.37l0.94,0.54c0.12-0.14,0.18-0.33,0.13-0.52
				C53.13,30.35,52.82,30.17,52.52,30.25z M56.54,28.02c0.3-0.08,0.47-0.39,0.39-0.68c-0.07-0.25-0.29-0.41-0.54-0.41l-0.48,0.28
				c-0.07,0.12-0.1,0.27-0.06,0.42C55.94,27.92,56.24,28.1,56.54,28.02z M54.39,28.59c0.3-0.08,0.47-0.39,0.39-0.68
				c0-0.02-0.01-0.03-0.02-0.05l-0.95,0.55C53.95,28.57,54.17,28.65,54.39,28.59z M51.71,29.63L51.07,30l0.65,0.37
				c0.12-0.14,0.18-0.33,0.13-0.52C51.82,29.77,51.77,29.69,51.71,29.63z M55.75,29.38c0.3-0.08,0.47-0.39,0.39-0.68
				c-0.08-0.3-0.39-0.47-0.68-0.39c-0.3,0.08-0.47,0.39-0.39,0.68C55.15,29.29,55.46,29.46,55.75,29.38z M59.49,26.07
				c0.3-0.08,0.47-0.39,0.39-0.68c-0.04-0.15-0.13-0.26-0.25-0.33l-0.84,0.49c0,0.05,0,0.09,0.02,0.14
				C58.88,25.98,59.19,26.15,59.49,26.07z M59.35,34.19c-0.19,0.05-0.33,0.19-0.39,0.37l0.94,0.54c0.12-0.14,0.18-0.33,0.13-0.52
				C59.95,34.29,59.65,34.11,59.35,34.19z M58.7,27.44c0.3-0.08,0.47-0.39,0.39-0.68c-0.08-0.3-0.39-0.47-0.68-0.39
				c-0.3,0.08-0.47,0.39-0.39,0.68C58.09,27.34,58.4,27.52,58.7,27.44z M57.33,26.65c0.24-0.06,0.4-0.27,0.41-0.51l-0.8,0.46
				C57.06,26.67,57.19,26.69,57.33,26.65z M60.85,26.86c0.3-0.08,0.47-0.39,0.39-0.68c-0.08-0.3-0.39-0.47-0.68-0.39
				c-0.3,0.08-0.47,0.39-0.39,0.68C60.25,26.77,60.55,26.94,60.85,26.86z M58.09,31.64c-0.08-0.3-0.39-0.47-0.68-0.39
				c-0.3,0.08-0.47,0.39-0.39,0.68c0.08,0.3,0.39,0.47,0.68,0.39C57.99,32.25,58.17,31.94,58.09,31.64z M57.99,33.4
				c-0.19,0.05-0.33,0.19-0.39,0.37l0.94,0.54c0.12-0.14,0.18-0.33,0.13-0.52C58.59,33.5,58.28,33.32,57.99,33.4z M59.46,32.43
				c-0.08-0.3-0.39-0.47-0.68-0.39c-0.3,0.08-0.47,0.39-0.39,0.68c0.08,0.3,0.39,0.47,0.68,0.39
				C59.36,33.03,59.54,32.73,59.46,32.43z M53.99,29.28c-0.08-0.3-0.39-0.47-0.68-0.39c-0.3,0.08-0.47,0.39-0.39,0.68
				c0.08,0.3,0.39,0.47,0.68,0.39C53.9,29.88,54.07,29.57,53.99,29.28z M56.62,32.61c-0.19,0.05-0.33,0.19-0.39,0.37l0.94,0.54
				c0.12-0.14,0.18-0.33,0.13-0.52C57.22,32.71,56.92,32.54,56.62,32.61z M55.36,30.07c-0.08-0.3-0.39-0.47-0.68-0.39
				c-0.3,0.08-0.47,0.39-0.39,0.68c0.08,0.3,0.39,0.47,0.68,0.39C55.26,30.67,55.44,30.36,55.36,30.07z M53.89,31.04
				c-0.19,0.05-0.33,0.19-0.39,0.37l0.94,0.54c0.12-0.14,0.18-0.33,0.13-0.52C54.49,31.13,54.19,30.96,53.89,31.04z M55.25,31.83
				c-0.19,0.05-0.33,0.19-0.39,0.37l0.94,0.54c0.12-0.14,0.18-0.33,0.13-0.52C55.86,31.92,55.55,31.75,55.25,31.83z M56.73,30.85
				c-0.08-0.3-0.39-0.47-0.68-0.39c-0.3,0.08-0.47,0.39-0.39,0.68c0.08,0.3,0.39,0.47,0.68,0.39C56.63,31.46,56.8,31.15,56.73,30.85
				z"/>
		</g>
	</g>
</g>
</svg>
