<?xml version="1.0" encoding="utf-8"?>
<!-- Generator: Adobe Illustrator 24.1.0, SVG Export Plug-In . SVG Version: 6.00 Build 0)  -->
<svg version="1.1" id="Livello_1" xmlns="https://www.w3.org/2000/svg" xmlns:xlink="https://www.w3.org/1999/xlink" x="0px" y="0px"
	 viewBox="0 0 220 60" style="enable-background:new 0 0 220 60;" xml:space="preserve" width="200px" height="60px">
<style type="text/css">
	.st0{fill:#FFFFFF;}
</style>
<g>
	<path class="st0" d="M97.29,7.28c0-1.51-0.92-2.8-2.23-3.35c-2.11-0.86-4.43-1.34-6.85-1.34V2.5h-7.27c-1,0-1.82,0.81-1.82,1.82
		v51.37c0,1,0.81,1.82,1.82,1.82h7.27v-0.09c2.42,0,4.74-0.48,6.85-1.34c1.31-0.55,2.23-1.84,2.23-3.35c0-0.01,0-0.02,0-0.03V7.32
		C97.28,7.3,97.29,7.29,97.29,7.28z"/>
	<path class="st0" d="M73.67,2.59c-9.18,0.91-16.35,8.65-16.35,18.07c0,0.03,0,0.06,0,0.09c0,0.03,0,0.06,0,0.09
		c0,9.42,7.17,17.16,16.35,18.07c1,0,1.82-0.81,1.82-1.82V4.41C75.49,3.4,74.68,2.59,73.67,2.59z"/>
	<path class="st0" d="M119.08,16.53c0-1.51-0.92-2.8-2.23-3.35c-2.11-0.86-4.43-1.34-6.85-1.34c-2.42,0-4.74,0.48-6.85,1.34
		c-1.31,0.55-2.23,1.84-2.23,3.35c0,0.01,0,0.02,0,0.03v26.88c0,0.01,0,0.02,0,0.03c0,1.51,0.92,2.8,2.23,3.35
		c2.11,0.86,4.43,1.34,6.85,1.34c2.43,0,4.74-0.48,6.85-1.34c1.31-0.55,2.23-1.84,2.23-3.35c0-0.01,0-0.02,0-0.03V16.56
		C119.08,16.55,119.08,16.54,119.08,16.53z"/>
	<path class="st0" d="M162.68,20.66c0-9.42-7.17-17.16-16.35-18.07c-1,0-1.82,0.81-1.82,1.82v32.7c0,1,0.81,1.82,1.82,1.82
		c9.18-0.91,16.35-8.66,16.35-18.07c0-0.03,0-0.06,0-0.09C162.67,20.72,162.68,20.69,162.68,20.66z"/>
	<g>
		<path class="st0" d="M131.72,27.79c1.13,0,1.88-0.7,1.88-1.78c0-0.6-0.3-1.18-0.6-1.48h-2.51c-0.34,0.34-0.61,0.9-0.61,1.48
			C129.87,27.09,130.61,27.79,131.72,27.79z"/>
		<path class="st0" d="M131.75,32.27c-1.13,0-1.88,0.69-1.88,1.78c0,0.6,0.29,1.18,0.6,1.46h2.54c0.33-0.34,0.59-0.89,0.59-1.46
			C133.6,32.97,132.86,32.27,131.75,32.27z"/>
		<path class="st0" d="M131.75,48.42c-1.13,0-1.88,0.69-1.88,1.78c0,0.6,0.29,1.17,0.6,1.46h2.54c0.33-0.34,0.59-0.89,0.59-1.46
			C133.6,49.12,132.86,48.42,131.75,48.42z"/>
		<path class="st0" d="M139.06,2.5h-7.27v0.09c-2.42,0-4.74,0.48-6.85,1.34c-1.31,0.55-2.23,1.84-2.23,3.35c0,0.01,0,0.02,0,0.03
			v45.37c0,0.01,0,0.02,0,0.03c0,1.51,0.92,2.8,2.23,3.35c2.11,0.86,4.43,1.34,6.85,1.34v0.09h7.27c1,0,1.82-0.81,1.82-1.82V4.32
			C140.88,3.31,140.07,2.5,139.06,2.5z M128.46,16.43v-1.75H135v1.75h-0.68c0.46,0.44,0.8,1.09,0.8,1.96c0,1.84-1.43,3.08-3.4,3.08
			c-1.98,0-3.38-1.24-3.38-3.08c0-0.83,0.32-1.51,0.76-1.96H128.46z M126.12,22.79H135v1.75h-0.68c0.46,0.44,0.8,1.09,0.8,1.96
			c0,1.84-1.43,3.08-3.4,3.08c-1.98,0-3.38-1.24-3.38-3.08c0-0.83,0.32-1.51,0.76-1.96h-2.99V22.79z M126.12,43.58h3.11
			c-0.54-0.49-0.89-1.21-0.89-2.16c0-1.78,1.28-2.51,2.89-2.51H135v1.75h-3.48c-0.96,0-1.56,0.4-1.56,1.35
			c0,0.86,0.63,1.36,1.15,1.58H135v1.75h-8.88V43.58z M137.35,53.41h-8.89v-1.75h0.68c-0.46-0.44-0.79-1.08-0.79-1.95
			c0-1.83,1.41-3.06,3.4-3.06c1.96,0,3.38,1.24,3.38,3.06c0,0.84-0.31,1.5-0.74,1.95h2.96V53.41z M137.35,37.26h-8.89v-1.75h0.68
			c-0.46-0.44-0.79-1.08-0.79-1.95c0-1.83,1.41-3.06,3.4-3.06c1.96,0,3.38,1.24,3.38,3.06c0,0.84-0.31,1.5-0.74,1.95h2.96V37.26z
			 M137.04,13.58l-1.41-0.26c0.17-0.31,0.37-0.76,0.37-1.24c0-0.58-0.27-0.84-0.84-1.09l-0.34-0.14l-6.37,2.98v-1.94l4.63-1.8
			l-4.63-1.74V6.59l6.6,2.71c1.64,0.65,2.41,1.31,2.41,2.78C137.48,12.68,137.25,13.26,137.04,13.58z"/>
		<path class="st0" d="M131.72,19.69c1.13,0,1.88-0.7,1.88-1.78c0-0.6-0.3-1.18-0.6-1.48h-2.51c-0.34,0.34-0.61,0.9-0.61,1.48
			C129.87,18.99,130.61,19.69,131.72,19.69z"/>
	</g>
</g>
</svg>
