<?xml version="1.0" encoding="utf-8"?>
<!-- Generator: Adobe Illustrator 24.1.0, SVG Export Plug-In . SVG Version: 6.00 Build 0)  -->
<svg version="1.1" id="Livello_1" xmlns="https://www.w3.org/2000/svg" xmlns:xlink="https://www.w3.org/1999/xlink" x="0px" y="0px"
	 viewBox="0 0 220 60" style="enable-background:new 0 0 220 60;" xml:space="preserve" width="200px" height="60px">
<style type="text/css">
	.st0{fill:#FFFFFF;}
</style>
<g>
	<path class="st0" d="M62.87,30.01c0-4-5.01-7.79-12.68-10.14c1.77-7.82,0.98-14.05-2.48-16.04c-0.8-0.47-1.73-0.69-2.74-0.69V3.13
		c-3.38,0-7.81,2.41-12.29,6.59c-4.48-4.16-8.91-6.54-12.29-6.54v0.01c-1.03,0-1.97,0.22-2.78,0.69c-3.46,1.99-4.23,8.2-2.45,16
		C7.51,22.24,2.52,26.02,2.52,30.01c0,4,5.01,7.79,12.68,10.14c-1.77,7.82-0.98,14.05,2.48,16.04c0.8,0.47,1.73,0.69,2.77,0.69
		c3.38,0,7.81-2.41,12.29-6.59c4.48,4.16,8.91,6.54,12.29,6.54c1.03,0,1.97-0.22,2.78-0.69c3.46-1.99,4.23-8.2,2.45-16
		C57.89,37.78,62.87,33.99,62.87,30.01z M44.95,5.87v0.01c0.57,0,1.02,0.11,1.4,0.32c1.67,0.96,2.4,4.61,1.83,9.31
		c-0.14,1.16-0.36,2.37-0.63,3.62c-2.41-0.59-5.04-1.05-7.81-1.34c-1.66-2.28-3.38-4.34-5.12-6.15C38.63,7.92,42.39,5.88,44.95,5.87
		z M21.8,36.3c0.58,0.98,1.17,1.94,1.77,2.88c-1.75-0.26-3.43-0.58-5.04-0.97c0.46-1.59,1.02-3.22,1.66-4.86
		C20.69,34.34,21.22,35.32,21.8,36.3z M18.49,21.8c1.61-0.38,3.31-0.71,5.07-0.97c-0.6,0.95-1.21,1.92-1.77,2.92
		c-0.57,0.98-1.09,1.97-1.6,2.95C19.52,25.05,18.96,23.4,18.49,21.8z M21.63,30.04c0.76-1.65,1.62-3.3,2.55-4.91
		c0.96-1.66,1.94-3.23,2.96-4.7c1.83-0.16,3.69-0.25,5.56-0.25c1.86,0,3.71,0.09,5.53,0.23c1.02,1.46,2.02,3.03,2.98,4.67
		c0.93,1.61,1.78,3.25,2.56,4.9c-0.77,1.65-1.62,3.3-2.55,4.91c-0.96,1.66-1.94,3.23-2.96,4.7c-1.83,0.16-3.69,0.25-5.56,0.25
		c-1.86,0-3.71-0.09-5.53-0.23c-1.02-1.46-2.02-3.03-2.98-4.67C23.25,33.33,22.4,31.69,21.63,30.04z M43.59,36.27
		c0.57-0.98,1.09-1.98,1.6-2.96c0.66,1.65,1.23,3.3,1.7,4.9c-1.61,0.39-3.31,0.73-5.07,0.98C42.42,38.23,43.03,37.26,43.59,36.27z
		 M43.58,23.71c-0.57-0.98-1.17-1.94-1.77-2.88c1.75,0.26,3.43,0.58,5.04,0.97c-0.46,1.59-1.02,3.22-1.66,4.86
		C44.69,25.68,44.16,24.69,43.58,23.71z M36.08,17.52c-1.11-0.05-2.24-0.09-3.38-0.09c-1.16,0-2.3,0.02-3.42,0.09
		c1.11-1.44,2.25-2.76,3.38-3.94C33.8,14.77,34.95,16.08,36.08,17.52z M18.97,6.26c0.37-0.22,0.85-0.32,1.41-0.32V5.92
		c2.55,0,6.32,2.03,10.33,5.73c-1.72,1.81-3.44,3.86-5.08,6.14c-2.78,0.3-5.41,0.75-7.82,1.35c-0.28-1.23-0.49-2.42-0.64-3.57
		C16.59,10.88,17.31,7.23,18.97,6.26z M15.87,37.48c-1.22-0.38-2.37-0.8-3.44-1.25c-4.35-1.86-7.17-4.29-7.17-6.22
		c0-1.93,2.82-4.38,7.17-6.22c1.06-0.46,2.21-0.86,3.41-1.24c0.7,2.41,1.62,4.92,2.77,7.49C17.47,32.59,16.56,35.09,15.87,37.48z
		 M20.43,54.14c-0.55-0.01-1.02-0.12-1.39-0.33c-1.67-0.96-2.4-4.61-1.83-9.31c0.14-1.16,0.36-2.37,0.63-3.62
		c2.41,0.59,5.04,1.05,7.81,1.34c1.66,2.28,3.38,4.34,5.12,6.15C26.75,52.1,22.99,54.14,20.43,54.14z M32.72,46.43
		c-1.14-1.18-2.29-2.5-3.42-3.94c1.11,0.05,2.24,0.09,3.38,0.09c1.16,0,2.3-0.02,3.42-0.09C35,43.93,33.85,45.25,32.72,46.43z
		 M46.42,53.76c-0.37,0.22-0.85,0.32-1.41,0.32c-2.55,0-6.32-2.03-10.33-5.73c1.72-1.81,3.44-3.86,5.08-6.14
		c2.78-0.3,5.41-0.75,7.82-1.35c0.28,1.24,0.5,2.44,0.64,3.58C48.8,49.13,48.08,52.79,46.42,53.76z M52.95,36.23
		c-1.06,0.46-2.21,0.86-3.41,1.24c-0.7-2.41-1.62-4.92-2.77-7.49c1.13-2.56,2.04-5.06,2.73-7.45c1.22,0.38,2.37,0.8,3.46,1.25
		c4.35,1.86,7.17,4.29,7.17,6.22C60.12,31.94,57.31,34.38,52.95,36.23z"/>
	<g>
		<polygon class="st0" points="33.88,26.66 31.52,26.66 31.42,28 33.97,28 		"/>
		<polygon class="st0" points="34.05,28.99 31.35,28.99 31.25,30.33 34.14,30.33 		"/>
		<path class="st0" d="M35.97,22.92c-1.23,0-2.38,0.46-3.27,1.29c-0.89-0.84-2.04-1.29-3.27-1.29c-2.64,0-4.79,2.15-4.79,4.79
			c0,2.24,1.34,4.82,3.98,7.68c1.95,2.11,3.94,3.6,3.96,3.61c0.04,0.03,0.08,0.04,0.12,0.04c0.04,0,0.09-0.01,0.12-0.04
			c0.02-0.01,2-1.5,3.96-3.61c2.64-2.86,3.98-5.44,3.98-7.68C40.76,25.06,38.61,22.92,35.97,22.92z M35.34,35.2
			c-0.09,0.1-0.21,0.16-0.34,0.17c-0.01,0-0.02,0-0.04,0c-0.26,0-0.47-0.2-0.49-0.46l-0.09-1.27h-3.38l-0.09,1.27
			c-0.02,0.27-0.26,0.47-0.53,0.46c-0.13-0.01-0.25-0.07-0.34-0.17c-0.09-0.1-0.13-0.23-0.12-0.36l0.71-9.76
			c0.02-0.27,0.26-0.48,0.53-0.46c0.27,0.02,0.48,0.26,0.46,0.53l-0.04,0.52h2.22l-0.04-0.52c-0.01-0.13,0.03-0.26,0.12-0.36
			c0.09-0.1,0.21-0.16,0.34-0.17c0.27-0.02,0.51,0.18,0.53,0.46l0.71,9.76C35.47,34.97,35.43,35.1,35.34,35.2z"/>
		<polygon class="st0" points="31.18,31.32 31.08,32.66 34.31,32.66 34.22,31.32 		"/>
	</g>
	<g>
		<g>
			<path class="st0" d="M77.56,37.69V23.52h5.28v1.55c0.88-1.03,2.73-1.97,4.34-1.97v5.05c-0.26-0.09-0.7-0.15-1.2-0.15
				c-1.11,0-2.55,0.29-3.14,1v8.68H77.56z"/>
			<path class="st0" d="M88.03,30.59c0-4.11,3.14-7.42,7.71-7.42c4.17,0,7.36,2.99,7.36,7.98v1.09h-9.62
				c0.29,0.91,1.32,1.79,3.05,1.79c0.79,0,2.55-0.38,3.26-1l2.17,3.26c-1.41,1.2-3.93,1.76-6.04,1.76
				C91.5,38.04,88.03,35.25,88.03,30.59z M95.75,27.18c-1.61,0-2.14,1.06-2.32,1.7h4.66C97.95,28.27,97.45,27.18,95.75,27.18z"/>
			<path class="st0" d="M114.2,37.69v-1.5c-1.2,1.35-2.55,1.85-3.99,1.85c-3.43,0-6.25-2.58-6.25-7.45c0-4.69,2.76-7.42,6.25-7.42
				c1.44,0,2.85,0.5,3.96,1.85v-1.5h5.31v14.17H114.2z M114.2,32.41V28.8c-0.5-0.62-1.5-0.94-2.2-0.94c-1.44,0-2.64,0.97-2.64,2.73
				c0,1.76,1.2,2.79,2.64,2.79C112.7,33.37,113.7,33.02,114.2,32.41z"/>
			<path class="st0" d="M121.44,30.59c0-4.49,3.46-7.42,7.95-7.42c3.23,0,5.22,1.47,6.01,2.67l-3.4,3.2
				c-0.44-0.67-1.26-1.2-2.38-1.2c-1.5,0-2.79,0.94-2.79,2.76c0,1.82,1.29,2.79,2.79,2.79c1.11,0,1.94-0.59,2.38-1.23l3.4,3.23
				c-0.79,1.17-2.79,2.67-6.01,2.67C124.9,38.04,121.44,35.1,121.44,30.59z"/>
			<path class="st0" d="M138.22,33.58v-5.49h-2.35v-4.58h2.35v-3.87h5.28v3.87h2.87v4.58h-2.87v3.96c0,0.73,0.47,1.32,1.17,1.32
				c0.47,0,0.94-0.15,1.06-0.26l0.94,3.99c-0.56,0.5-1.79,0.94-3.58,0.94C139.95,38.04,138.22,36.54,138.22,33.58z"/>
			<path class="st0" d="M143.76,42.47l1.26-3.9c0.59,0.44,0.94,0.56,1.76,0.56c0.97,0,1.55-0.7,1.55-2.05V23.52h5.28v13.55
				c0,3.64-1.79,6.37-5.9,6.37C145.58,43.43,144.91,43.17,143.76,42.47z M148.02,19.53c0-1.64,1.32-2.96,2.96-2.96
				c1.64,0,2.96,1.32,2.96,2.96c0,1.64-1.32,2.96-2.96,2.96C149.34,22.49,148.02,21.17,148.02,19.53z"/>
			<path class="st0" d="M155.35,35.87l2.11-3.55c1.11,0.88,3.52,1.79,5.1,1.79c1.09,0,1.41-0.26,1.41-0.62
				c0-1.35-8.04,0.38-8.04-5.49c0-2.55,2.23-4.84,6.34-4.84c2.38,0,4.49,0.73,6.13,1.82l-1.94,3.43c-0.88-0.73-2.52-1.47-4.17-1.47
				c-0.76,0-1.32,0.29-1.32,0.62c0,1.17,8.04-0.29,8.04,5.6c0,2.82-2.52,4.87-6.72,4.87C159.69,38.04,156.88,37.13,155.35,35.87z"/>
			<path class="st0" d="M181.93,37.69v-2.11c-1.06,1.44-2.79,2.46-4.78,2.46c-3.7,0-6.31-2.82-6.31-7.42c0-4.55,2.61-7.45,6.31-7.45
				c1.91,0,3.64,0.94,4.78,2.49v-7.54h2.2v19.57H181.93z M181.93,33.81v-6.39c-0.76-1.23-2.49-2.29-4.22-2.29
				c-2.87,0-4.58,2.35-4.58,5.49c0,3.14,1.7,5.46,4.58,5.46C179.43,36.07,181.16,35.05,181.93,33.81z"/>
			<path class="st0" d="M198.79,37.69v-2.11c-1.06,1.44-2.79,2.46-4.78,2.46c-3.7,0-6.31-2.82-6.31-7.42c0-4.55,2.61-7.45,6.31-7.45
				c1.91,0,3.64,0.94,4.78,2.49v-2.14h2.2v14.17H198.79z M198.79,33.81v-6.39c-0.76-1.23-2.49-2.29-4.22-2.29
				c-2.87,0-4.58,2.35-4.58,5.49c0,3.14,1.7,5.46,4.58,5.46C196.3,36.07,198.03,35.05,198.79,33.81z"/>
			<path class="st0" d="M204.95,41.23c0.32,0.15,0.85,0.23,1.2,0.23c0.97,0,1.61-0.32,2.11-1.5l0.94-2.14l-5.93-14.31h2.41
				l4.69,11.62l4.72-11.62h2.38l-7.1,17.04c-0.85,2.05-2.29,2.85-4.17,2.87c-0.47,0-1.2-0.09-1.58-0.21L204.95,41.23z"/>
		</g>
	</g>
</g>
</svg>
