<?xml version="1.0" encoding="utf-8"?>
<!-- Generator: Adobe Illustrator 24.1.0, SVG Export Plug-In . SVG Version: 6.00 Build 0)  -->
<svg version="1.1" id="Livello_1" xmlns="http://www.w3.org/2000/svg" xmlns:xlink="http://www.w3.org/1999/xlink" x="0px" y="0px"
	 viewBox="0 0 512 512" style="enable-background:new 0 0 512 512;" xml:space="preserve">
<style type="text/css">
	.st0{fill:#F49506;}
</style>
<g>
	<path class="st0" d="M468.81,301.63h-59.57c-5.26,0-9.54,4.28-9.54,9.54v18.39c0,5.68-3.06,10.99-7.99,13.83l-127.65,73.7
		c-4.86,2.8-11.12,2.8-15.98,0L120.42,343.4c-4.93-2.85-7.99-8.15-7.99-13.84v-147.4c0-5.68,3.06-10.99,7.99-13.83l127.65-73.7
		c4.86-2.81,11.15-2.8,15.98,0l4.26,2.46c2.9,1.67,6.64,1.67,9.55,0c2.94-1.7,4.77-4.87,4.77-8.27V20.03c0-3.4-1.82-6.57-4.77-8.27
		l-17.02-9.82c-1.45-0.84-3.1-1.28-4.78-1.28c-1.67,0-3.32,0.45-4.77,1.28L38.54,124.76c-2.95,1.7-4.78,4.87-4.78,8.27v245.66
		c0,3.39,1.83,6.56,4.78,8.27l212.74,122.83c2.91,1.68,6.67,1.67,9.55,0l212.75-122.83c2.94-1.7,4.76-4.87,4.76-8.27v-67.52
		C478.34,305.91,474.07,301.63,468.81,301.63z"/>
	<path class="st0" d="M256.05,113.66c-1.67,0-3.32,0.45-4.77,1.28L136.4,181.27c-2.95,1.7-4.78,4.87-4.78,8.27v132.65
		c0,3.4,1.83,6.57,4.78,8.28l114.88,66.32c2.91,1.69,6.67,1.67,9.55,0l114.88-66.32c2.95-1.71,4.77-4.87,4.77-8.28V76.53
		c0-3.39-1.83-6.56-4.77-8.27l-59.57-34.39c-2.9-1.67-6.65-1.66-9.54,0c-2.94,1.7-4.77,4.87-4.77,8.27v90.9
		c0,1.15-0.61,2.21-1.61,2.78c-1,0.58-2.22,0.58-3.21,0l-36.16-20.88C259.38,114.1,257.73,113.66,256.05,113.66z M293.83,224.83
		c4.93,2.84,7.99,8.14,7.99,13.84v34.4c0,5.68-3.06,10.99-7.99,13.84l-29.78,17.19c-2.42,1.41-5.19,2.14-8,2.14
		c-2.8,0-5.56-0.74-7.99-2.14l-29.78-17.19c-4.93-2.85-7.99-8.15-7.99-13.84v-34.4c0-5.69,3.06-11,7.99-13.84l29.78-17.2
		c4.88-2.8,11.14-2.8,15.99,0L293.83,224.83z"/>
	<path class="st0" d="M473.57,124.76L414,90.36c-1.45-0.84-3.09-1.27-4.77-1.27c-1.68,0-3.32,0.44-4.77,1.27
		c-2.94,1.71-4.77,4.87-4.77,8.28v101.91c0,5.26,4.28,9.54,9.54,9.54h59.57c5.26,0,9.54-4.28,9.54-9.54v-67.52
		C478.34,129.64,476.52,126.46,473.57,124.76z"/>
</g>
</svg>
