<?xml version="1.0" encoding="utf-8"?>
<!-- Generator: Adobe Illustrator 24.1.0, SVG Export Plug-In . SVG Version: 6.00 Build 0)  -->
<svg version="1.1" id="Livello_1" xmlns="http://www.w3.org/2000/svg" xmlns:xlink="http://www.w3.org/1999/xlink" x="0px" y="0px"
	 viewBox="0 0 512 512" style="enable-background:new 0 0 512 512;" xml:space="preserve">
<style type="text/css">
	.st0{fill:#5E4E9B;}
</style>
<path class="st0" d="M477.58,332.24c-19.94,29.91-37.39,42.37-61.07,53.59c-11.22,4.99-16.2-7.48-7.48-13.71
	c54.84-38.63,87.24-99.7,87.24-169.49c0-110.92-90.98-201.9-203.14-201.9H132.36c-63.56,0-115.9,49.85-115.9,112.17v279.17
	c0,63.56,52.34,115.9,114.66,115.9s110.92-46.11,114.66-105.93l61.07,72.28c38.63,52.34,115.9,44.87,157.03,3.74
	C503.75,438.17,509.99,378.35,477.58,332.24z M254.5,245c-7.48,0-12.46,0-17.45-2.49v-68.55c4.99-2.49,9.97-4.98,17.45-4.98
	c21.19,0,36.14,17.45,36.14,38.63S275.69,245,254.5,245z"/>
</svg>
