<?xml version="1.0" encoding="utf-8"?>
<!-- Generator: Adobe Illustrator 24.1.0, SVG Export Plug-In . SVG Version: 6.00 Build 0)  -->
<svg version="1.1" id="Livello_1" xmlns="http://www.w3.org/2000/svg" xmlns:xlink="http://www.w3.org/1999/xlink" x="0px" y="0px"
	 viewBox="0 0 512 512" style="enable-background:new 0 0 512 512;" xml:space="preserve">
<style type="text/css">
	.st0{fill:#5E4E9B;}
</style>
<path class="st0" d="M97.96,357.98c5.75,9.95,18.47,13.37,28.43,7.62c9.96-5.74,13.36-18.48,7.62-28.43
	c-0.01-0.01-0.02-0.02-0.03-0.04l-52-90.08l-49.93-3.22l65.9,114.14C97.96,357.97,97.96,357.97,97.96,357.98z M179.06,383.99
	l145.31-251.14c7.94-13.75,19.22-24.36,32.22-31.41h-20.42c-26.96,0-50.48,14.66-63.07,36.43L143.02,363.18
	c-8.62,14.93-27.72,20.05-42.65,11.43c-4.93-2.84-8.77-6.82-11.42-11.43l-65.9-114.15L0.88,293.87l52.03,90.12
	c12.59,21.77,36.12,36.43,63.07,36.43C142.95,420.41,166.47,405.76,179.06,383.99z M414.17,163.89c-1.77-3.06-4.33-5.72-7.62-7.62
	c-9.95-5.75-22.68-2.34-28.43,7.62c-3.85,6.67-3.59,14.58,0,20.8v0.01l52.03,90.12l49.92,3.22L414.17,163.89L414.17,163.89z
	 M459.33,137.88c-12.6-21.78-36.12-36.43-63.08-36.43c-26.96,0-50.48,14.66-63.07,36.43L187.87,389.01
	c-7.94,13.75-19.22,24.36-32.22,31.4h20.42c26.96,0,50.48-14.66,63.07-36.43l130.08-225.31c8.62-14.93,27.72-20.05,42.64-11.43
	c4.92,2.85,8.77,6.84,11.43,11.43l65.9,114.16L511.36,228L459.33,137.88z"/>
</svg>
