<?xml version="1.0" encoding="utf-8"?>
<!-- Generator: Adobe Illustrator 24.1.0, SVG Export Plug-In . SVG Version: 6.00 Build 0)  -->
<svg version="1.1" id="Livello_1" xmlns="http://www.w3.org/2000/svg" xmlns:xlink="http://www.w3.org/1999/xlink" x="0px" y="0px"
	 viewBox="0 0 512 512" style="enable-background:new 0 0 512 512;" xml:space="preserve">
<style type="text/css">
	.st0{fill:#E84133;}
</style>
<g>
	<path class="st0" d="M120.71,88.46c2.79,0.89,6.45,6.41,9.26,11.07c38.74,64.39,77.35,128.87,115.72,193.49
		c3.79,6.39,7.09,8.74,15.03,6.75c47.62-11.92,95.41-23.15,144.58-34.95c-1.97-3.22-34.1-49.38-48.58-69.95
		c-5.41-7.69-4.38-10.76,4.66-12.33c23.14-4.01,46.35-7.67,69.5-11.6c7.91-1.34,13.74,1.1,18.84,7.49
		c19.86,24.88,40.06,49.48,60.14,74.19c1.03,1.11,1.3,2.58,0,3.22c-22.34,6.25-44.68,12.5-67.02,18.77
		c-2.45,0.69-4.88,1.5-8.36,2.58c7.51,10.14,47.7,64.19,60.84,82.12c5.93,8.08,5.34,10.37-4.22,13.81
		c-55.56,20.01-111.14,40-166.83,59.65c-15.82,5.58-19.83,4.02-28.27-10.54c-17.18-29.63-34.02-59.45-50.61-89.42
		c-3.18-5.74-6.03-7.12-12.55-5.36c-32.23,8.7-64.62,16.85-97,25.01c-14.69,3.7-22.32,0.07-28.53-13.36
		C73.11,265.05,3.02,113.03,2.3,111.02c-4.03-11.24-1.37-14.88,10.75-15.79C13.06,95.23,113.43,85.38,120.71,88.46z M230.39,306.79
		c-1.78-3.74-77.79-135.73-114.5-199.49c-2.82-4.89-5.98-6.66-11.51-6.11c-19.43,1.93-72.91,6.8-81.09,7.7
		c1.46,3.53,70.42,146.46,103.85,215.82c2.31,4.79,4.79,6,9.98,4.52C147.12,326.37,208.41,312.1,230.39,306.79z M261.56,320.07
		c17.33,29.42,50.99,85.86,50.99,85.86c1.66,3.27,5.68,3.64,10.25,2.09c0,0,147.27-50.36,150.47-51.77
		c-2.46-3.61-36.45-50.22-51.34-71.17c-3.19-4.49-6.01-5.41-11.27-4C374.3,290.83,275.66,316.41,261.56,320.07z M375.73,194.82
		c0.47,1.96,29.46,43.35,44.03,62.81c1.52,2.11,5.08,2.24,7.36,1.73c14.82-3.31,53.63-13.29,59.3-14.88l-36.05-47.05
		c-8.61-11.52-14.83-14.07-29.03-11.32L375.73,194.82z"/>
</g>
</svg>
