<?xml version="1.0" encoding="utf-8"?>
<!-- Generator: Adobe Illustrator 24.1.0, SVG Export Plug-In . SVG Version: 6.00 Build 0)  -->
<svg version="1.1" id="Livello_1" xmlns="http://www.w3.org/2000/svg" xmlns:xlink="http://www.w3.org/1999/xlink" x="0px" y="0px"
	 viewBox="0 0 512 512" style="enable-background:new 0 0 512 512;" xml:space="preserve">
<style type="text/css">
	.st0{fill:#AE953F;}
</style>
<g>
	<path class="st0" d="M194.76,268.81c-20.39-20.39-53.77-20.39-74.16,0L15.72,373.69c-20.39,20.39-20.39,53.77,0,74.16v0
		c20.39,20.39,53.77,20.39,74.16,0l104.88-104.88C215.15,322.58,215.15,289.21,194.76,268.81L194.76,268.81z"/>
	<path class="st0" d="M207.21,70.91c-20.39-20.39-53.77-20.39-74.16,0L28.18,175.79c-20.39,20.39-20.39,53.77,0,74.16l0,0
		c20.39,20.39,53.77,20.39,74.16,0l104.88-104.88C227.61,124.68,227.61,91.31,207.21,70.91L207.21,70.91z"/>
	
		<ellipse transform="matrix(0.9925 -0.1222 0.1222 0.9925 -28.2562 57.9733)" class="st0" cx="458.57" cy="259.38" rx="52.44" ry="52.44"/>
	
		<ellipse transform="matrix(0.3827 -0.9239 0.9239 0.3827 183.2501 490.3731)" class="st0" cx="458.57" cy="108.06" rx="52.44" ry="52.44"/>
	<path class="st0" d="M327.51,55.62L327.51,55.62c-28.87,0-52.5,23.62-52.5,52.5v302.53c0,28.87,23.62,52.5,52.5,52.5h0
		c28.87,0,52.5-23.62,52.5-52.5V108.12C380,79.24,356.38,55.62,327.51,55.62z"/>
</g>
</svg>
