<?xml version="1.0" encoding="utf-8"?>
<!-- Generator: Adobe Illustrator 24.1.0, SVG Export Plug-In . SVG Version: 6.00 Build 0)  -->
<svg version="1.1" id="Livello_1" xmlns="https://www.w3.org/2000/svg" xmlns:xlink="https://www.w3.org/1999/xlink" x="0px" y="0px"
	 viewBox="0 0 512 512" style="enable-background:new 0 0 512 512;" xml:space="preserve">
<style type="text/css">
	.st0{fill:#8CC046;}
	.st1{fill:#020203;}
</style>
<g>
	<polygon class="st0" points="503.99,188.84 503.99,188.84 503.99,332.21 379.83,260.53 	"/>
	<polygon class="st0" points="131.51,260.53 7.35,332.21 7.35,188.84 	"/>
	<polygon class="st0" points="379.83,117.16 276.07,177.06 255.67,188.84 255.67,188.84 131.51,260.53 7.35,332.21 131.51,403.89 
		235.26,343.99 255.67,332.21 379.83,260.53 503.99,188.84 	"/>
</g>
<g>
	<path class="st1" d="M379.83,410.46c-1.13,0-2.27-0.29-3.29-0.88L255.67,339.8l-120.88,69.79c-2.03,1.17-4.54,1.17-6.57,0
		L4.06,337.9c-2.03-1.17-3.29-3.34-3.29-5.69V188.84c0-2.35,1.25-4.52,3.29-5.69l124.16-71.68c2.03-1.17,4.54-1.17,6.57,0
		l120.88,69.79l120.88-69.79c2.03-1.17,4.54-1.17,6.57,0l124.16,71.68c2.03,1.17,3.29,3.34,3.29,5.69v143.37
		c0,2.35-1.25,4.52-3.29,5.69l-124.16,71.68C382.1,410.17,380.96,410.46,379.83,410.46z M255.67,325.64c1.13,0,2.27,0.29,3.28,0.88
		l120.88,69.79l117.59-67.89V192.64l-117.59-67.89l-120.87,69.79c-2.03,1.17-4.54,1.17-6.57,0l-120.88-69.79L13.92,192.64v135.78
		l117.59,67.89l120.88-69.79C253.4,325.93,254.53,325.64,255.67,325.64z"/>
	<path class="st1" d="M503.99,338.78c-1.13,0-2.27-0.29-3.29-0.88l-124.16-71.68c-2.03-1.17-3.29-3.34-3.29-5.69
		s1.25-4.52,3.29-5.69l124.16-71.68c2.03-1.17,4.54-1.17,6.57,0c2.03,1.17,3.29,3.34,3.29,5.69v143.37c0,2.35-1.25,4.52-3.29,5.69
		C506.26,338.49,505.12,338.78,503.99,338.78z M392.97,260.53l104.45,60.3V200.22L392.97,260.53z"/>
	<path class="st1" d="M7.35,338.78c-1.13,0-2.27-0.29-3.29-0.88c-2.03-1.17-3.29-3.34-3.29-5.69V188.84c0-2.35,1.25-4.52,3.29-5.69
		c2.03-1.17,4.54-1.17,6.57,0l124.16,71.68c2.03,1.17,3.29,3.34,3.29,5.69s-1.25,4.52-3.29,5.69L10.63,337.9
		C9.62,338.49,8.48,338.78,7.35,338.78z M13.92,200.22v120.61l104.45-60.3L13.92,200.22z"/>
	<path class="st1" d="M131.51,410.46c-1.13,0-2.27-0.29-3.29-0.88L4.06,337.9c-2.03-1.17-3.29-3.34-3.29-5.69
		c0-2.35,1.25-4.52,3.29-5.69l372.48-215.05c2.03-1.17,4.54-1.17,6.57,0l124.16,71.68c2.03,1.17,3.29,3.34,3.29,5.69
		c0,2.35-1.25,4.52-3.29,5.69L134.79,409.58C133.78,410.17,132.64,410.46,131.51,410.46z M20.49,332.21l111.02,64.1l359.34-207.46
		l-111.02-64.1L20.49,332.21z"/>
	<g>
		<path class="st1" d="M465.32,285.21c2.2-0.59,3.51-2.86,2.92-5.07c-0.59-2.21-2.86-3.52-5.07-2.93c-2.21,0.59-3.52,2.86-2.93,5.07
			C460.84,284.5,463.11,285.8,465.32,285.21z M475.46,291.07c2.2-0.59,3.51-2.86,2.92-5.07c-0.59-2.21-2.86-3.52-5.07-2.93
			c-2.21,0.59-3.52,2.86-2.93,5.07C470.98,290.35,473.25,291.66,475.46,291.07z M458.32,227.1c2.2-0.59,3.51-2.86,2.92-5.07
			c-0.59-2.21-2.86-3.52-5.07-2.93c-2.21,0.59-3.52,2.86-2.93,5.07C453.84,226.38,456.11,227.7,458.32,227.1z M481.31,280.93
			c2.2-0.59,3.51-2.86,2.92-5.07c-0.59-2.21-2.86-3.52-5.07-2.93c-2.21,0.59-3.52,2.86-2.93,5.07
			C476.83,280.21,479.1,281.52,481.31,280.93z M460.46,235.1c-2.21,0.59-3.52,2.86-2.93,5.07c0.59,2.2,2.86,3.52,5.07,2.92
			c2.2-0.59,3.51-2.86,2.92-5.07C464.94,235.82,462.67,234.51,460.46,235.1z M454.61,245.24c-2.21,0.59-3.52,2.86-2.93,5.07
			c0.59,2.21,2.86,3.52,5.07,2.92c2.2-0.59,3.51-2.86,2.92-5.07C459.08,245.96,456.81,244.65,454.61,245.24z M485.59,296.92
			c2.2-0.59,3.51-2.86,2.92-5.07c-0.59-2.21-2.86-3.52-5.07-2.93c-2.21,0.59-3.52,2.86-2.93,5.07
			C481.11,296.2,483.38,297.51,485.59,296.92z M461.04,269.22c2.2-0.59,3.51-2.86,2.92-5.07c-0.59-2.21-2.86-3.52-5.07-2.93
			c-2.21,0.59-3.52,2.86-2.93,5.07C456.56,268.5,458.83,269.81,461.04,269.22z M455.18,279.36c2.2-0.59,3.51-2.86,2.92-5.07
			c-0.59-2.21-2.86-3.52-5.07-2.93c-2.21,0.59-3.52,2.86-2.93,5.07C450.7,278.64,452.97,279.95,455.18,279.36z M471.17,275.08
			c2.2-0.59,3.51-2.86,2.92-5.07c-0.59-2.21-2.86-3.52-5.07-2.93c-2.21,0.59-3.52,2.86-2.93,5.07
			C466.69,274.36,468.96,275.67,471.17,275.08z M474.31,222.82c2.2-0.59,3.51-2.86,2.92-5.07c-0.59-2.21-2.86-3.52-5.07-2.93
			c-2.21,0.59-3.52,2.86-2.93,5.07C469.83,222.1,472.1,223.41,474.31,222.82z M486.02,202.55c2.19-0.59,3.49-2.83,2.93-5.02
			l-6.88,3.97C483.07,202.48,484.55,202.94,486.02,202.55z M480.16,212.68c2.2-0.59,3.51-2.86,2.92-5.07
			c-0.59-2.21-2.86-3.52-5.07-2.93c-2.21,0.59-3.52,2.86-2.93,5.07C475.68,211.96,477.95,213.27,480.16,212.68z M464.17,216.97
			c2.2-0.59,3.51-2.86,2.92-5.07c-0.14-0.51-0.37-0.97-0.67-1.37l-7.1,4.1C460.13,216.47,462.17,217.5,464.17,216.97z
			 M498.87,250.52c2.2-0.59,3.51-2.86,2.92-5.07c-0.59-2.21-2.86-3.52-5.07-2.93c-2.21,0.59-3.52,2.86-2.93,5.07
			C494.39,249.8,496.66,251.11,498.87,250.52z M490.87,252.66c-2.21,0.59-3.52,2.86-2.93,5.07c0.59,2.21,2.86,3.52,5.07,2.92
			c2.2-0.59,3.51-2.86,2.92-5.07C495.35,253.38,493.08,252.07,490.87,252.66z M497.3,276.64c2.2-0.59,3.51-2.86,2.92-5.07
			c-0.59-2.21-2.86-3.52-5.07-2.93c-2.21,0.59-3.52,2.86-2.93,5.07C492.82,275.93,495.09,277.24,497.3,276.64z M492.44,226.53
			c-2.21,0.59-3.52,2.86-2.93,5.07c0.59,2.21,2.86,3.52,5.07,2.92c2.2-0.59,3.51-2.86,2.92-5.07
			C496.92,227.25,494.65,225.94,492.44,226.53z M500.44,224.39c2.2-0.59,3.51-2.86,2.92-5.07c-0.59-2.21-2.86-3.52-5.07-2.93
			c-2.21,0.59-3.52,2.86-2.93,5.07C495.96,223.67,498.23,224.98,500.44,224.39z M466.31,224.96c-2.21,0.59-3.52,2.86-2.93,5.07
			c0.59,2.2,2.86,3.52,5.07,2.92c2.2-0.59,3.51-2.86,2.92-5.07C470.79,225.68,468.52,224.37,466.31,224.96z M434.91,267.65
			c2.2-0.59,3.51-2.86,2.92-5.07c-0.59-2.21-2.86-3.52-5.07-2.93c-2.21,0.59-3.52,2.86-2.93,5.07
			C430.43,266.94,432.7,268.25,434.91,267.65z M445.04,273.51c2.2-0.59,3.51-2.86,2.92-5.07c-0.59-2.21-2.86-3.52-5.07-2.93
			c-2.21,0.59-3.52,2.86-2.93,5.07C440.56,272.79,442.83,274.1,445.04,273.51z M446.61,247.38c2.2-0.59,3.51-2.86,2.92-5.07
			c-0.59-2.21-2.86-3.52-5.07-2.93c-2.21,0.59-3.52,2.86-2.93,5.07C442.13,246.66,444.4,247.97,446.61,247.38z M422.63,253.81
			c-2.21,0.59-3.52,2.86-2.93,5.07c0.59,2.21,2.86,3.52,5.07,2.92c2.2-0.59,3.51-2.86,2.92-5.07
			C427.1,254.53,424.83,253.22,422.63,253.81z M440.76,257.52c2.2-0.59,3.51-2.86,2.92-5.07c-0.59-2.21-2.86-3.52-5.07-2.93
			c-2.21,0.59-3.52,2.86-2.93,5.07C436.28,256.8,438.55,258.11,440.76,257.52z M496.15,208.4c2.2-0.59,3.51-2.86,2.92-5.07
			c-0.59-2.21-2.86-3.52-5.07-2.93c-2.21,0.59-3.52,2.86-2.93,5.07C491.67,207.68,493.94,208.99,496.15,208.4z M430.62,251.66
			c2.2-0.59,3.51-2.86,2.92-5.07c-0.59-2.21-2.86-3.52-5.07-2.93c-2.21,0.59-3.52,2.86-2.93,5.07
			C426.14,250.94,428.41,252.26,430.62,251.66z M489.31,278.79c-2.21,0.59-3.52,2.86-2.93,5.07c0.59,2.2,2.86,3.52,5.07,2.92
			c2.2-0.59,3.51-2.86,2.92-5.07C493.78,279.51,491.51,278.2,489.31,278.79z M464.75,251.09c-2.21,0.59-3.52,2.86-2.93,5.07
			c0.59,2.21,2.86,3.52,5.07,2.92c2.2-0.59,3.51-2.86,2.92-5.07C469.22,251.81,466.95,250.5,464.75,251.09z M490.66,299.85
			c0.59,2.21,2.86,3.52,5.07,2.92c2.2-0.59,3.51-2.86,2.92-5.07c-0.59-2.21-2.86-3.52-5.07-2.93
			C491.38,295.37,490.07,297.64,490.66,299.85z M488.73,244.66c2.2-0.59,3.51-2.86,2.92-5.07c-0.59-2.21-2.86-3.52-5.07-2.93
			c-2.21,0.59-3.52,2.86-2.93,5.07C484.25,243.94,486.52,245.26,488.73,244.66z M476.45,230.82c-2.21,0.59-3.52,2.86-2.93,5.07
			c0.59,2.2,2.86,3.52,5.07,2.92c2.2-0.59,3.51-2.86,2.92-5.07C480.92,231.53,478.65,230.23,476.45,230.82z M474.88,256.94
			c-2.21,0.59-3.52,2.86-2.93,5.07c0.59,2.21,2.86,3.52,5.07,2.92c2.2-0.59,3.51-2.86,2.92-5.07
			C479.36,257.66,477.09,256.35,474.88,256.94z M470.6,240.95c-2.21,0.59-3.52,2.86-2.93,5.07c0.59,2.21,2.86,3.52,5.07,2.92
			c2.2-0.59,3.51-2.86,2.92-5.07C475.07,241.67,472.8,240.36,470.6,240.95z M450.9,263.37c2.2-0.59,3.51-2.86,2.92-5.07
			c-0.59-2.21-2.86-3.52-5.07-2.93c-2.21,0.59-3.52,2.86-2.93,5.07C446.42,262.65,448.69,263.96,450.9,263.37z M490.3,218.53
			c2.2-0.59,3.51-2.86,2.92-5.07c-0.59-2.21-2.86-3.52-5.07-2.93c-2.21,0.59-3.52,2.86-2.93,5.07
			C485.82,217.82,488.09,219.13,490.3,218.53z M482.3,220.68c-2.21,0.59-3.52,2.86-2.93,5.07c0.59,2.21,2.86,3.52,5.07,2.92
			c2.2-0.59,3.51-2.86,2.92-5.07C486.78,221.4,484.51,220.09,482.3,220.68z M480.74,246.81c-2.21,0.59-3.52,2.86-2.93,5.07
			c0.59,2.21,2.86,3.52,5.07,2.92c2.2-0.59,3.51-2.86,2.92-5.07C485.21,247.52,482.94,246.22,480.74,246.81z M482.09,267.87
			c0.59,2.21,2.86,3.52,5.07,2.92c2.2-0.59,3.51-2.86,2.92-5.07c-0.59-2.21-2.86-3.52-5.07-2.93
			C482.81,263.39,481.5,265.66,482.09,267.87z M492.8,307.84c-0.59-2.21-2.86-3.52-5.07-2.93c-2.21,0.59-3.52,2.86-2.93,5.07
			c0.59,2.2,2.86,3.52,5.07,2.92C492.08,312.32,493.39,310.05,492.8,307.84z M481.89,315.05c-1.41,0.38-2.45,1.44-2.87,2.74
			l6.99,4.04c0.91-1.01,1.32-2.44,0.94-3.85C486.36,315.77,484.09,314.46,481.89,315.05z M471.75,309.2
			c-1.41,0.38-2.45,1.45-2.87,2.74l6.99,4.04c0.91-1.01,1.32-2.44,0.94-3.85C476.22,309.92,473.95,308.61,471.75,309.2z
			 M502.94,313.7c-0.59-2.21-2.86-3.52-5.07-2.93c-2.21,0.59-3.52,2.86-2.93,5.07c0.59,2.2,2.86,3.52,5.07,2.92
			C502.22,318.17,503.53,315.9,502.94,313.7z M492.02,320.91c-1.41,0.38-2.45,1.44-2.87,2.74l6.99,4.04
			c0.91-1.01,1.32-2.44,0.94-3.85C496.5,321.63,494.23,320.32,492.02,320.91z M452.25,284.43c-0.59-2.21-2.86-3.52-5.07-2.93
			c-2.21,0.59-3.52,2.86-2.93,5.07c0.59,2.21,2.86,3.52,5.07,2.92C451.53,288.91,452.84,286.64,452.25,284.43z M451.47,297.49
			c-1.41,0.38-2.45,1.45-2.87,2.74l6.99,4.04c0.91-1.01,1.32-2.44,0.94-3.85C455.95,298.21,453.68,296.9,451.47,297.49z
			 M472.53,296.14c-0.59-2.21-2.86-3.52-5.07-2.93c-2.21,0.59-3.52,2.86-2.93,5.07c0.59,2.21,2.86,3.52,5.07,2.92
			C471.81,300.61,473.12,298.34,472.53,296.14z M462.39,290.29c-0.59-2.21-2.86-3.52-5.07-2.93c-2.21,0.59-3.52,2.86-2.93,5.07
			c0.59,2.2,2.86,3.52,5.07,2.92C461.67,294.76,462.98,292.49,462.39,290.29z M461.61,303.35c-1.41,0.38-2.45,1.44-2.87,2.74
			l6.99,4.04c0.91-1.01,1.32-2.44,0.94-3.85C466.08,304.07,463.81,302.76,461.61,303.35z M482.67,301.99
			c-0.59-2.21-2.86-3.52-5.07-2.93c-2.21,0.59-3.52,2.86-2.93,5.07c0.59,2.21,2.86,3.52,5.07,2.92
			C481.95,306.47,483.26,304.2,482.67,301.99z M502.58,232.38c-2.21,0.59-3.52,2.86-2.93,5.07c0.53,1.96,2.38,3.21,4.34,3.04v-8.23
			C503.53,232.23,503.05,232.26,502.58,232.38z M502.16,326.76c-1.41,0.38-2.45,1.44-2.87,2.74l4.7,2.71v-5.51
			C503.4,326.59,502.78,326.59,502.16,326.76z M503.94,253.44c0.01,0.05,0.04,0.09,0.05,0.14v-2.43
			C503.77,251.87,503.73,252.66,503.94,253.44z M501.64,190.2l-4.59,2.65c-0.28,0.77-0.34,1.63-0.12,2.49
			c0.59,2.2,2.86,3.52,5.07,2.92c0.79-0.21,1.47-0.65,1.98-1.22v-5.54C503.37,190.82,502.55,190.36,501.64,190.2z M501.22,211.33
			c0.38,1.42,1.46,2.46,2.77,2.87v-7.88C501.88,206.98,500.64,209.17,501.22,211.33z M501.01,258.51c-2.21,0.59-3.52,2.86-2.93,5.07
			c0.59,2.21,2.86,3.52,5.07,2.92c0.3-0.08,0.57-0.19,0.83-0.33v-7.32C503.1,258.39,502.05,258.23,501.01,258.51z M450.34,219.82
			l-2.62,1.51c0.15-0.02,0.3-0.03,0.46-0.07C449.07,221.01,449.81,220.49,450.34,219.82z M499.44,284.64
			c-2.21,0.59-3.52,2.86-2.93,5.07c0.59,2.21,2.86,3.52,5.07,2.92c1.04-0.28,1.87-0.94,2.4-1.78v-4.43
			C503.04,284.94,501.23,284.16,499.44,284.64z M502.37,279.57c0.26,0.97,0.86,1.75,1.62,2.29v-6.74
			C502.61,276.1,501.91,277.85,502.37,279.57z M500.8,305.7c0.42,1.57,1.7,2.67,3.19,2.97v-8.08c-0.09,0.02-0.17,0.02-0.26,0.04
			C501.52,301.22,500.21,303.49,500.8,305.7z M390.65,262.38c-1.41,0.38-2.45,1.45-2.87,2.74l6.99,4.04
			c0.91-1.01,1.32-2.44,0.94-3.85C395.12,263.09,392.85,261.79,390.65,262.38z M420.49,245.81c2.2-0.59,3.51-2.86,2.92-5.07
			c-0.5-1.86-2.19-3.07-4.03-3.05l-3.55,2.05c-0.53,0.92-0.71,2.04-0.42,3.15C416,245.09,418.28,246.4,420.49,245.81z M404.5,250.1
			c2.2-0.59,3.51-2.86,2.92-5.07c-0.03-0.12-0.09-0.23-0.13-0.35l-7.04,4.06C401.25,249.94,402.88,250.53,404.5,250.1z
			 M384.63,257.75l-4.8,2.77l4.8,2.77c0.91-1.01,1.32-2.44,0.94-3.85C385.4,258.79,385.06,258.23,384.63,257.75z M414.63,255.95
			c2.2-0.59,3.51-2.86,2.92-5.07c-0.59-2.21-2.86-3.52-5.07-2.93c-2.21,0.59-3.52,2.86-2.93,5.07
			C410.15,255.23,412.42,256.54,414.63,255.95z M442.33,231.39c2.2-0.59,3.51-2.86,2.92-5.07c-0.29-1.08-0.99-1.95-1.88-2.48
			l-6.24,3.6c0,0.34,0.04,0.68,0.13,1.02C437.85,230.67,440.12,231.98,442.33,231.39z M441.34,291.64
			c-1.41,0.38-2.45,1.45-2.87,2.74l6.99,4.04c0.91-1.01,1.32-2.44,0.94-3.85C445.81,292.36,443.54,291.05,441.34,291.64z
			 M436.48,241.53c2.2-0.59,3.51-2.86,2.92-5.07c-0.59-2.21-2.86-3.52-5.07-2.93c-2.21,0.59-3.52,2.86-2.93,5.07
			C431.99,240.81,434.27,242.12,436.48,241.53z M426.34,235.67c1.76-0.47,2.94-2.02,3.04-3.75l-5.96,3.44
			C424.29,235.8,425.32,235.95,426.34,235.67z M452.47,237.24c2.2-0.59,3.51-2.86,2.92-5.07c-0.59-2.21-2.86-3.52-5.07-2.93
			c-2.21,0.59-3.52,2.86-2.93,5.07C447.99,236.52,450.26,237.83,452.47,237.24z M431.98,272.72c-0.59-2.21-2.86-3.52-5.07-2.93
			c-2.21,0.59-3.52,2.86-2.93,5.07c0.59,2.21,2.86,3.52,5.07,2.92C431.26,277.2,432.57,274.93,431.98,272.72z M431.2,285.79
			c-1.41,0.38-2.45,1.45-2.87,2.74l6.99,4.04c0.91-1.01,1.32-2.44,0.94-3.85C435.67,286.51,433.4,285.2,431.2,285.79z
			 M442.12,278.58c-0.59-2.21-2.86-3.52-5.07-2.93c-2.21,0.59-3.52,2.86-2.93,5.07c0.59,2.21,2.86,3.52,5.07,2.92
			C441.4,283.05,442.71,280.79,442.12,278.58z M401.56,255.17c-0.59-2.21-2.86-3.52-5.07-2.93c-2.21,0.59-3.52,2.86-2.93,5.07
			c0.59,2.2,2.86,3.52,5.07,2.92C400.84,259.64,402.16,257.37,401.56,255.17z M421.06,279.93c-1.41,0.38-2.45,1.45-2.87,2.74
			l6.99,4.04c0.91-1.01,1.32-2.44,0.94-3.85C425.53,280.65,423.26,279.34,421.06,279.93z M411.7,261.02
			c-0.59-2.21-2.86-3.52-5.07-2.93c-2.21,0.59-3.52,2.86-2.93,5.07c0.59,2.21,2.86,3.52,5.07,2.92
			C410.98,265.5,412.29,263.22,411.7,261.02z M400.78,268.23c-1.41,0.38-2.45,1.45-2.87,2.74l6.99,4.04
			c0.91-1.01,1.32-2.44,0.94-3.85C405.26,268.95,402.99,267.64,400.78,268.23z M410.92,274.08c-1.41,0.38-2.45,1.45-2.87,2.74
			l6.99,4.04c0.91-1.01,1.32-2.44,0.94-3.85C415.4,274.8,413.13,273.49,410.92,274.08z M421.84,266.87
			c-0.59-2.21-2.86-3.52-5.07-2.93c-2.21,0.59-3.52,2.86-2.93,5.07c0.59,2.21,2.86,3.52,5.07,2.92
			C421.12,271.35,422.43,269.08,421.84,266.87z"/>
	</g>
</g>
</svg>
