<?xml version="1.0" encoding="utf-8"?>
<!-- Generator: Adobe Illustrator 24.1.0, SVG Export Plug-In . SVG Version: 6.00 Build 0)  -->
<svg version="1.1" id="Livello_1" xmlns="http://www.w3.org/2000/svg" xmlns:xlink="http://www.w3.org/1999/xlink" x="0px" y="0px"
	 viewBox="0 0 512 512" style="enable-background:new 0 0 512 512;" xml:space="preserve">
<style type="text/css">
	.st0{fill:#6683B9;}
</style>
<g>
	<path class="st0" d="M194.52,153.04c0-7.32-4.46-13.59-10.81-16.24c-10.24-4.19-21.45-6.5-33.2-6.5v-0.44h-35.21
		c-4.86,0-8.8,3.94-8.8,8.8v248.9c0,4.87,3.95,8.8,8.8,8.8h35.21v-0.44c11.75,0,22.96-2.31,33.2-6.5
		c6.35-2.66,10.81-8.93,10.81-16.25c0-0.05-0.01-0.1-0.01-0.15V153.19C194.51,153.14,194.52,153.09,194.52,153.04z"/>
	<path class="st0" d="M80.11,130.29C35.64,134.71,0.9,172.23,0.9,217.87c0,0.14,0.01,0.29,0.01,0.44c0,0.15-0.01,0.29-0.01,0.44
		c0,45.63,34.74,83.16,79.21,87.57c4.86,0,8.8-3.94,8.8-8.8V139.1C88.91,134.24,84.97,130.29,80.11,130.29z"/>
	<path class="st0" d="M300.14,197.84c0-7.31-4.46-13.59-10.81-16.24c-10.24-4.19-21.45-6.5-33.2-6.5c-11.75,0-22.96,2.32-33.2,6.5
		c-6.35,2.66-10.81,8.93-10.81,16.24c0,0.05,0,0.1,0,0.15v130.23c0,0.05,0,0.1,0,0.15c0,7.31,4.46,13.59,10.81,16.25
		c10.24,4.18,21.45,6.5,33.2,6.5c11.75,0,22.96-2.32,33.2-6.5c6.35-2.66,10.81-8.93,10.81-16.25c0-0.05-0.01-0.1-0.01-0.15V197.99
		C300.12,197.94,300.14,197.89,300.14,197.84z"/>
	<path class="st0" d="M511.36,217.87c0-45.64-34.74-83.16-79.21-87.57c-4.86,0-8.8,3.94-8.8,8.8v158.42c0,4.86,3.94,8.8,8.8,8.8
		c44.47-4.42,79.21-41.94,79.21-87.57c0-0.15-0.01-0.29-0.01-0.44C511.36,218.16,511.36,218.01,511.36,217.87z"/>
	<g>
		<path class="st0" d="M396.95,129.86h-35.2v0.44c-11.75,0-22.96,2.31-33.2,6.5c-6.34,2.66-10.8,8.93-10.8,16.24
			c0,0.05,0.01,0.1,0.01,0.15v219.83c0,0.05-0.01,0.1-0.01,0.15c0,7.32,4.46,13.59,10.8,16.25c10.24,4.19,21.45,6.5,33.2,6.5v0.44
			h35.2c4.86,0,8.8-3.94,8.8-8.8v-248.9C405.75,133.8,401.81,129.86,396.95,129.86z"/>
	</g>
</g>
</svg>
