<?xml version="1.0" encoding="utf-8"?>
<!-- Generator: Adobe Illustrator 24.1.0, SVG Export Plug-In . SVG Version: 6.00 Build 0)  -->
<svg version="1.1" id="Livello_1" xmlns="http://www.w3.org/2000/svg" xmlns:xlink="http://www.w3.org/1999/xlink" x="0px" y="0px"
	 viewBox="0 0 512 512" style="enable-background:new 0 0 512 512;" xml:space="preserve">
<style type="text/css">
	.st0{fill-rule:evenodd;clip-rule:evenodd;fill:#5B5A5A;}
	.st1{fill-rule:evenodd;clip-rule:evenodd;fill:#6FC7DA;}
</style>
<g>
	<path id="Fill-89_1_" class="st0" d="M268.2,210.59l-35.73-35.73l-22.8,7.6l15.2-15.2l-0.02-0.02l51.89-51.89
		c4.32-4.32,4.32-11.33,0-15.65L241.2,64.17c-2.07-2.07-4.89-3.24-7.82-3.24s-5.75,1.17-7.82,3.24l-95.24,95.24
		c-4.32,4.32-4.32,11.33,0,15.65l43.35,43.35l-51.88,51.89c-4.32,4.32-4.32,11.33,0,15.65l35.53,35.53
		c2.07,2.07,4.89,3.24,7.82,3.24c2.93,0,5.75-1.17,7.82-3.24l95.24-95.24C272.52,221.91,272.52,214.91,268.2,210.59"/>
	<path id="Fill-91_1_" class="st0" d="M148.78,210.59l-35.74-35.75l-22.83,7.61l15.22-15.22l51.89-51.89
		c2.07-2.07,3.24-4.89,3.24-7.82c0-2.93-1.17-5.75-3.24-7.82l-35.53-35.53c-2.16-2.16-4.99-3.24-7.82-3.24
		c-2.83,0-5.66,1.08-7.82,3.24l-95.24,95.24c-4.32,4.32-4.32,11.33,0,15.65l86.71,86.71c2.16,2.16,4.99,3.24,7.82,3.24
		c2.83,0,5.66-1.08,7.82-3.24l35.53-35.53C153.1,221.91,153.1,214.91,148.78,210.59"/>
	<path id="Fill-93_1_" class="st0" d="M396.14,99.7l-35.53-35.53c-2.07-2.07-4.89-3.24-7.82-3.24s-5.75,1.17-7.82,3.24l-95.24,95.24
		c-2.07,2.08-3.24,4.89-3.24,7.82s1.17,5.75,3.24,7.82l43.36,43.36L241.2,270.3c-4.32,4.32-4.32,11.33,0,15.65l35.53,35.53
		c2.16,2.16,4.99,3.24,7.82,3.24s5.66-1.08,7.82-3.24l95.24-95.24c4.32-4.32,4.32-11.33,0-15.65l-35.75-35.74l-22.83,7.61
		l15.22-15.22l51.88-51.89C400.46,111.03,400.46,104.02,396.14,99.7"/>
</g>
<g>
	<path id="Fill-95_1_" class="st1" d="M149.59,331.83l-86.71-86.71c-2.16-2.16-4.99-3.24-7.82-3.24c-2.83,0-5.66,1.08-7.82,3.24
		L11.7,280.65c-4.32,4.32-4.32,11.33,0,15.65l43.35,43.36l-0.04,0.04l15.16,15.16l-22.74-7.58L3.17,391.54
		c-2.07,2.08-3.24,4.89-3.24,7.82s1.17,5.75,3.24,7.82l35.53,35.53c2.16,2.16,4.99,3.24,7.82,3.24c2.83,0,5.66-1.08,7.82-3.24
		l95.24-95.24C153.91,343.15,153.91,336.15,149.59,331.83"/>
	<path id="Fill-97_1_" class="st1" d="M507.84,331.83l-35.53-35.53c-2.07-2.07-4.89-3.24-7.82-3.24s-5.75,1.17-7.82,3.24
		l-51.89,51.89l-15.22,15.22l7.61-22.83l-44.27-44.27c-2.16-2.16-4.99-3.24-7.82-3.24s-5.66,1.08-7.82,3.24l-35.53,35.53
		c-2.07,2.07-3.24,4.89-3.24,7.82c0,2.93,1.17,5.75,3.24,7.82l51.88,51.88l-32.29,32.29c-3.16,3.16-4.11,7.92-2.4,12.05
		c1.71,4.14,5.75,6.83,10.22,6.83h71.07c2.93,0,5.75-1.17,7.82-3.24l99.82-99.82C512.16,343.15,512.16,336.15,507.84,331.83"/>
	<path id="Fill-99_1_" class="st1" d="M331.95,399.36c0-2.93-1.17-5.75-3.24-7.82l-95.24-95.24c-2.07-2.07-4.89-3.24-7.82-3.24
		c-2.93,0-5.75,1.17-7.82,3.24l-95.24,95.24c-2.07,2.08-3.24,4.89-3.24,7.82s1.17,5.75,3.24,7.82l35.53,35.53
		c2.07,2.07,4.89,3.24,7.82,3.24l0,0c2.93,0,5.75-1.17,7.82-3.24l36.67-36.67h0l30.44-30.44l-7.61,22.83l44.28,44.28
		c2.16,2.16,4.99,3.24,7.82,3.24s5.66-1.08,7.82-3.24l35.53-35.53C330.79,405.11,331.95,402.29,331.95,399.36"/>
</g>
</svg>
