<?xml version="1.0" encoding="utf-8"?>
<!-- Generator: Adobe Illustrator 24.1.0, SVG Export Plug-In . SVG Version: 6.00 Build 0)  -->
<svg version="1.1" id="Livello_1" xmlns="http://www.w3.org/2000/svg" xmlns:xlink="http://www.w3.org/1999/xlink" x="0px" y="0px"
	 viewBox="0 0 512 512" style="enable-background:new 0 0 512 512;" xml:space="preserve">
<style type="text/css">
	.st0{fill:#277F3E;}
</style>
<g>
	<path class="st0" d="M499.77,233.22c-3.42,1.5-27.51,17.23-43.14,15.48c-12.3-1.3-8.71-9.84-8.71-9.84l0,0
		c67.42-72.12,30.54-167.92,23.43-168.54c-10.97-0.98,3.17,43.06-14.17,94.1c-3.64,13.51-58.79,121.95-86.89-27.46
		c0,0-0.44-10.43-7.16-10.61c-5.39,0-7.26,5.24-7.38,11.57c0,0,10.06,119.3-100.03,118.12c-110.07,1.11-100.03-118.12-100.03-118.12
		c-0.15-6.32-1.99-11.69-7.38-11.57c-6.69,0.17-7.16,10.61-7.16,10.61c-28.08,149.42-83.22,40.97-86.86,27.46
		c-17.37-51.04-3.22-95.08-14.2-94.1c-7.11,0.62-43.97,96.41,23.45,168.54l0,0c0,0,3.69,8.61-8.69,9.84
		c-15.63,1.62-39.72-13.98-43.14-15.48c-14.52-6.42-15.38,7.38-2.81,18.41c0,0,44.54,39.69,99.44,21.58
		c8.67,4.68,17.63,8.79,26.82,12.3c-29.75,16.02-48.5,33.93-44.29,44.17c3.99,9.6,27.07,9.7,56.74,1.6
		c-6.57,13.32-10.1,27.94-10.31,42.79c0,58.12,60.36,79.73,118.46,79.73s118.36-21.56,118.36-79.68
		c-0.25-15.69-4.16-31.1-11.42-45.01c33.22,10.26,60.07,11.02,64.37,0.62c4.31-10.41-15.67-29.28-47.05-45.67
		c7.89-3.19,15.6-6.81,23.08-10.85c54.9,18.11,99.44-21.58,99.44-21.58C515.15,240.7,514.27,226.8,499.77,233.22 M287.21,305.66
		c5.27-0.01,9.56,4.25,9.57,9.52c0.01,5.27-4.25,9.56-9.52,9.57s-9.56-4.25-9.57-9.52c0-0.02,0-0.03,0-0.05
		C277.69,309.93,281.95,305.66,287.21,305.66 M224.12,306.11c5.01,0,9.08,4.07,9.08,9.08s-4.07,9.08-9.08,9.08s-9.08-4.07-9.08-9.08
		S219.11,306.11,224.12,306.11L224.12,306.11 M171.31,408.32c0,0-17.23-21.83,1.25-62.06c0,0,16.91-35.95,13.34-4.43
		c0,0-2.17,22.15-1.7,30.54c0.47,8.39,3.79,25.44,25.62,47.76C209.82,420.14,185.36,424.25,171.31,408.32 M280.18,420.63
		c-0.74,0-1.5,0-2.26,0h-0.94h-0.94c-1.48-0.12-3.3-0.32-3.84-0.42l-2.02-0.3l-0.94-0.15l-1.48-0.2l-1.82-0.25l-1.38-0.17l-1.5-0.17
		h-0.64l-1.11-0.12c-1.8-0.17-3.52-0.27-4.92-0.3h-0.64c-1.23,0-2.63,0-4.13,0.2h-1.5l-1.13,0.12h-0.62l-1.5,0.17l-1.4,0.17
		l-1.8,0.25l-1.5,0.2l-0.94,0.15l-2.02,0.3c-0.54,0-2.46,0.3-3.81,0.42h-0.96h-0.94c-0.76,0-1.5,0-2.26,0
		c-1.51-0.12-3.01-0.35-4.48-0.69c-10.17-2.39-18.32-9.98-21.43-19.96c-0.2-0.69-0.39-1.4-0.57-2.12l-0.3-1.43
		c-0.31-1.72-0.46-3.47-0.47-5.22c0-20.84,18.6-28.32,22.64-31.84c15.26-13.36,19.02-16.86,29.11-16.86
		c10.09,0,13.85,3.49,29.11,16.86c4.06,3.52,22.64,11,22.64,31.84c0.01,1.75-0.15,3.5-0.47,5.22c0,0.47-0.17,0.96-0.3,1.43
		c-0.15,0.71-0.34,1.42-0.57,2.12C302.61,411.49,292.29,419.72,280.18,420.63 M340.05,408.32c-14.08,15.92-38.54,11.81-38.54,11.81
		c21.85-22.32,25.12-39.05,25.62-47.76c0.49-8.71-1.7-30.54-1.7-30.54c-3.54-31.52,13.36,4.43,13.36,4.43
		C357.32,386.5,340.05,408.32,340.05,408.32"/>
	<path class="st0" d="M233.42,382.07c-5.01,0-9.08,4.07-9.08,9.08c0,5.01,4.07,9.08,9.08,9.08s9.08-4.07,9.08-9.08
		c0-0.01,0-0.02,0-0.02C242.49,386.12,238.43,382.07,233.42,382.07"/>
	<path class="st0" d="M277.91,381.6c-5.27-0.01-9.56,4.25-9.57,9.52c-0.01,5.27,4.25,9.56,9.52,9.57c5.27,0.01,9.56-4.25,9.57-9.52
		c0-0.01,0-0.02,0-0.02C287.43,385.89,283.18,381.61,277.91,381.6"/>
</g>
</svg>
