<?xml version="1.0" encoding="utf-8"?>
<!-- Generator: Adobe Illustrator 24.1.0, SVG Export Plug-In . SVG Version: 6.00 Build 0)  -->
<svg version="1.1" id="Livello_1" xmlns="http://www.w3.org/2000/svg" xmlns:xlink="http://www.w3.org/1999/xlink" x="0px" y="0px"
	 viewBox="0 0 512 512" style="enable-background:new 0 0 512 512;" xml:space="preserve">
<style type="text/css">
	.st0{fill:#2AA9E1;}
	.st1{fill:#5B58A3;}
</style>
<path class="st0" d="M511.36,254.88c0-33.85-42.39-65.92-107.37-85.82c15-66.24,8.33-118.93-21.04-135.81
	c-6.74-3.94-14.62-5.81-23.22-5.83v-0.11c-28.64,0-66.13,20.41-104.04,55.82c-37.91-35.2-75.4-55.41-104.04-55.41v0.1
	c-8.75,0-16.66,1.87-23.54,5.83c-29.26,16.87-35.83,69.47-20.73,135.49c-64.78,20-106.96,51.97-106.96,85.71
	c0,33.85,42.39,65.92,107.37,85.82c-15,66.24-8.33,118.93,21.04,135.81c6.77,3.96,14.68,5.83,23.43,5.83
	c28.64,0,66.13-20.41,104.04-55.82c37.91,35.2,75.4,55.41,104.04,55.41c8.75,0,16.66-1.87,23.54-5.83
	c29.26-16.87,35.83-69.47,20.73-135.49C469.18,320.7,511.36,288.62,511.36,254.88z M359.62,50.55v0.1c4.79,0,8.64,0.94,11.87,2.71
	c14.16,8.12,20.31,39.05,15.52,78.84c-1.15,9.79-3.02,20.1-5.31,30.62c-20.41-5-42.7-8.85-66.13-11.35
	c-14.06-19.27-28.64-36.76-43.32-52.07C306.14,67.88,337.96,50.6,359.62,50.55z M163.62,308.2c4.89,8.33,9.89,16.45,15,24.37
	c-14.79-2.19-29.06-4.89-42.7-8.23c3.85-13.43,8.64-27.29,14.06-41.14C154.25,291.54,158.72,299.87,163.62,308.2z M135.6,185.41
	c13.64-3.23,28.02-6.04,42.91-8.23c-5.1,8.02-10.21,16.25-15,24.68c-4.79,8.33-9.27,16.66-13.54,24.99
	C144.35,212.91,139.56,198.95,135.6,185.41z M162.16,255.19c6.46-13.96,13.75-27.91,21.56-41.55c8.12-14.06,16.46-27.39,25.1-39.78
	c15.52-1.35,31.24-2.08,47.07-2.08c15.73,0,31.45,0.73,46.87,1.98c8.64,12.39,17.08,25.62,25.2,39.58
	c7.92,13.64,15.1,27.49,21.66,41.45c-6.56,13.96-13.75,27.91-21.56,41.55c-8.12,14.06-16.46,27.39-25.1,39.78
	c-15.52,1.35-31.24,2.08-47.07,2.08c-15.73,0-31.45-0.73-46.87-1.98c-8.64-12.39-17.08-25.62-25.2-39.58
	C175.91,283,168.72,269.15,162.16,255.19z M348.16,307.89c4.79-8.33,9.27-16.77,13.54-25.1c5.62,13.96,10.41,27.91,14.37,41.45
	c-13.64,3.33-28.02,6.14-42.91,8.33C338.27,324.55,343.37,316.32,348.16,307.89z M348.06,201.55c-4.79-8.33-9.89-16.46-15-24.37
	c14.79,2.19,29.06,4.89,42.7,8.23c-3.85,13.43-8.64,27.29-14.06,41.14C357.43,218.22,352.96,209.89,348.06,201.55z M284.53,149.17
	c-9.37-0.42-18.95-0.73-28.64-0.73c-9.79,0-19.48,0.21-28.95,0.73c9.37-12.19,19.06-23.33,28.64-33.33
	C265.26,125.84,274.95,136.98,284.53,149.17z M139.66,53.77c3.12-1.87,7.19-2.71,11.98-2.71v-0.1c21.56,0,53.53,17.18,87.48,48.53
	c-14.58,15.31-29.16,32.7-43.01,51.97c-23.54,2.5-45.82,6.35-66.24,11.46c-2.4-10.41-4.17-20.52-5.42-30.2
	C119.56,92.93,125.61,62,139.66,53.77z M113.42,318.2c-10.31-3.23-20.1-6.77-29.16-10.62c-36.87-15.73-60.72-36.35-60.72-52.7
	c0-16.35,23.85-37.08,60.72-52.7c8.96-3.85,18.75-7.29,28.85-10.52c5.94,20.41,13.75,41.66,23.43,63.42
	C126.96,276.75,119.25,297.89,113.42,318.2z M152.06,459.21c-4.69-0.1-8.64-1.04-11.77-2.81c-14.16-8.12-20.31-39.05-15.52-78.84
	c1.15-9.79,3.02-20.1,5.31-30.62c20.41,5,42.7,8.85,66.13,11.35c14.06,19.27,28.64,36.76,43.32,52.07
	C205.59,441.92,173.72,459.21,152.06,459.21z M256.1,393.91c-9.69-10-19.37-21.14-28.95-33.33c9.37,0.42,18.95,0.73,28.64,0.73
	c9.79,0,19.48-0.21,28.95-0.73C275.37,372.77,265.68,383.91,256.1,393.91z M372.12,455.98c-3.12,1.87-7.19,2.71-11.98,2.71
	c-21.56,0-53.53-17.18-87.48-48.53c14.58-15.31,29.16-32.7,43.01-51.97c23.54-2.5,45.82-6.35,66.24-11.46
	c2.4,10.52,4.27,20.62,5.42,30.31C392.22,416.82,386.18,447.76,372.12,455.98z M427.42,307.58c-8.96,3.85-18.75,7.29-28.85,10.52
	c-5.94-20.41-13.75-41.66-23.43-63.42c9.58-21.66,17.29-42.8,23.12-63.11c10.31,3.23,20.1,6.77,29.26,10.62
	c36.87,15.73,60.72,36.35,60.72,52.7C488.14,271.23,464.29,291.95,427.42,307.58z"/>
<g>
	<polygon class="st1" points="265.9,226.57 245.92,226.57 245.09,237.92 266.72,237.92 	"/>
	<polygon class="st1" points="267.33,246.27 244.48,246.27 243.66,257.62 268.16,257.62 	"/>
	<path class="st1" d="M283.62,194.84c-10.4,0-20.17,3.88-27.71,10.96c-7.54-7.08-17.32-10.96-27.71-10.96
		c-22.35,0-40.54,18.19-40.54,40.54c0,18.95,11.34,40.83,33.72,65.02c16.55,17.89,33.33,30.47,33.49,30.6
		c0.31,0.23,0.67,0.34,1.04,0.34c0.37,0,0.73-0.12,1.04-0.34c0.17-0.13,16.95-12.71,33.49-30.6c22.37-24.19,33.72-46.07,33.72-65.02
		C324.16,213.03,305.98,194.84,283.62,194.84z M278.31,298.86c-0.73,0.84-1.74,1.35-2.85,1.43c-0.11,0.01-0.21,0.01-0.31,0.01
		c-2.17,0-4-1.7-4.16-3.87l-0.78-10.78h-28.59l-0.79,10.78c-0.16,2.27-2.21,4.01-4.45,3.86c-1.12-0.08-2.14-0.59-2.87-1.43
		c-0.73-0.84-1.09-1.92-1-3.03l6.02-82.62c0.17-2.29,2.16-4.03,4.46-3.86c2.3,0.17,4.03,2.17,3.86,4.46l-0.32,4.41h18.76l-0.32-4.41
		c-0.08-1.11,0.28-2.19,1-3.03c0.73-0.84,1.74-1.35,2.85-1.43c2.3-0.18,4.3,1.57,4.46,3.86l6.02,82.62
		C279.39,296.94,279.03,298.01,278.31,298.86z"/>
	<polygon class="st1" points="243.05,265.96 242.22,277.31 269.6,277.31 268.77,265.96 	"/>
</g>
</svg>
