<?xml version="1.0" encoding="utf-8"?>
<!-- Generator: Adobe Illustrator 24.1.0, SVG Export Plug-In . SVG Version: 6.00 Build 0)  -->
<svg version="1.1" id="Livello_1" xmlns="https://www.w3.org/2000/svg" xmlns:xlink="https://www.w3.org/1999/xlink" x="0px" y="0px"
	 viewBox="0 0 220 60" style="enable-background:new 0 0 220 60;" xml:space="preserve" width="200px" height="60px">
<style type="text/css">
	.st0{fill:#FFFFFF;}
</style>
<g>
	<title>logo rubyday</title>
	<desc>Created with Sketch.</desc>
	<g id="Page-1_2_">
		<g id="logo-rubyday_2_">
			<path id="logo_2_" class="st0" d="M19.45,37.26V22.61c0-3.27,2.75-5.89,6.08-5.89h8.44c5.89,0,10.66,4.77,10.66,10.59
				c0,3.66-1.7,6.87-4.58,8.89c-0.46,0.33-0.2,0.98,0.39,0.72c1.24-0.59,2.16-1.24,3.2-2.81c1.7,2.42,1.37,5.56-0.72,7.65
				c-2.16,2.16-6.21,2.55-8.24-0.2l-3.2-3.79c-0.2,3.14-2.75,5.56-6.02,5.56S19.45,40.6,19.45,37.26L19.45,37.26z M31.02,25.82v3.6
				c0.26,0.13,0.52,0.13,0.92,0.13c1.11,0,1.9-0.85,1.9-1.96c0-1.11-0.78-2.03-1.9-2.03C31.55,25.56,31.29,25.69,31.02,25.82z
				 M45.74,30.79v-8.04c0-3.27,2.68-6.02,6.08-6.02c3.33,0,5.95,2.75,5.95,6.02v7.32c0,0.46,0.33,0.92,0.85,0.92
				c0.46,0,0.85-0.46,0.85-0.92v-7.32c0-3.27,2.68-6.02,6.08-6.02c3.2,0,5.95,2.75,5.95,6.02v8.04c0,6.93-5.82,12.75-12.82,12.75
				C51.56,43.54,45.74,37.72,45.74,30.79z M89.48,32.42c2.22-0.13,3.99-1.37,5.43-2.48c1.11,1.18,1.7,1.96,1.7,5.17
				c0,3.92-4.38,8.17-8.37,8.17H78.3c-3.2,0-5.89-2.81-5.89-6.02V22.61c0-3.33,2.62-5.89,5.89-5.89h9.42c4.05,0,7.59,3.27,7.59,7.59
				c0,3.53-2.62,6.54-5.95,7.32C88.76,31.64,88.76,32.49,89.48,32.42z M111.78,18.36c2.29-2.35,6.02-2.35,8.24,0
				c2.22,2.29,2.22,6.08,0,8.44l-5.17,5.23v5.23c0,3.27-2.68,5.95-6.02,5.95c-3.27,0-5.95-2.68-5.95-5.95v-5.23l-5.17-5.23
				c-2.22-2.35-2.22-6.15,0-8.44c2.22-2.35,5.89-2.35,8.17,0l2.94,3.01L111.78,18.36z M128.85,43.21c-3.4,0-6.08-2.55-6.08-5.82
				V22.61c0-3.27,2.62-6.02,5.95-6.02h5.82c7.32,0,13.14,6.02,13.14,13.27c0,7.39-6.02,13.34-13.41,13.34H128.85z M136.89,29.94
				c0-1.11-0.85-2.03-2.03-2.03h-1.11v3.92h1.11C136.04,31.83,136.89,30.98,136.89,29.94z M157.69,41.32
				c-2.35,2.29-6.15,2.29-8.44,0s-2.29-5.95,0-8.24l14.26-14.39c1.83-2.16,5.04-2.68,7.45-1.24c1.83,0.92,3.01,2.88,3.01,5.1v14.78
				c0,3.27-2.94,5.89-5.95,5.89c-2.88,0-4.84-1.63-5.62-3.86l2.48-3.86c0.46-0.52-0.26-1.05-0.72-0.46L157.69,41.32z M190.64,18.36
				c2.29-2.35,6.02-2.35,8.24,0c2.22,2.29,2.22,6.08,0,8.44l-5.17,5.23v5.23c0,3.27-2.68,5.95-6.02,5.95
				c-3.27,0-5.95-2.68-5.95-5.95v-5.23l-5.17-5.23c-2.22-2.35-2.22-6.15,0-8.44c2.22-2.35,5.89-2.35,8.17,0l2.94,3.01L190.64,18.36z
				"/>
		</g>
	</g>
</g>
</svg>
