<?xml version="1.0" encoding="utf-8"?>
<!-- Generator: Adobe Illustrator 24.1.0, SVG Export Plug-In . SVG Version: 6.00 Build 0)  -->
<svg version="1.1" id="Livello_1" xmlns="https://www.w3.org/2000/svg" xmlns:xlink="https://www.w3.org/1999/xlink" x="0px" y="0px"
	 viewBox="0 0 220 60" style="enable-background:new 0 0 220 60;" xml:space="preserve" width="200px" height="60px">
<style type="text/css">
	.st0{fill:#FFFFFF;}
</style>
<g>
	<path class="st0" d="M66.86,35.38h-7c-0.62,0-1.12,0.5-1.12,1.12v2.16c0,0.67-0.36,1.29-0.94,1.63l-15.01,8.66
		c-0.57,0.33-1.31,0.33-1.88,0L25.9,40.29c-0.58-0.33-0.94-0.96-0.94-1.63V21.34c0-0.67,0.36-1.29,0.94-1.63l15.01-8.66
		c0.57-0.33,1.31-0.33,1.88,0l0.5,0.29c0.34,0.2,0.78,0.2,1.12,0c0.35-0.2,0.56-0.57,0.56-0.97V2.28c0-0.4-0.21-0.77-0.56-0.97
		l-2-1.15C42.24,0.05,42.04,0,41.85,0c-0.2,0-0.39,0.05-0.56,0.15L16.28,14.59c-0.35,0.2-0.56,0.57-0.56,0.97v28.88
		c0,0.4,0.22,0.77,0.56,0.97l25.01,14.44c0.34,0.2,0.78,0.2,1.12,0l25.01-14.44c0.35-0.2,0.56-0.57,0.56-0.97V36.5
		C67.98,35.89,67.48,35.38,66.86,35.38z"/>
	<path class="st0" d="M41.85,13.28c-0.2,0-0.39,0.05-0.56,0.15l-13.5,7.8c-0.35,0.2-0.56,0.57-0.56,0.97V37.8
		c0,0.4,0.22,0.77,0.56,0.97l13.5,7.8c0.34,0.2,0.78,0.2,1.12,0l13.51-7.8c0.35-0.2,0.56-0.57,0.56-0.97V8.92
		c0-0.4-0.22-0.77-0.56-0.97l-7-4.04c-0.34-0.2-0.78-0.2-1.12,0c-0.35,0.2-0.56,0.57-0.56,0.97v10.69c0,0.14-0.07,0.26-0.19,0.33
		c-0.12,0.07-0.26,0.07-0.38,0l-4.25-2.45C42.24,13.34,42.04,13.28,41.85,13.28z M46.29,26.35c0.58,0.33,0.94,0.96,0.94,1.63v4.04
		c0,0.67-0.36,1.29-0.94,1.63l-3.5,2.02c-0.28,0.17-0.61,0.25-0.94,0.25c-0.33,0-0.65-0.09-0.94-0.25l-3.5-2.02
		c-0.58-0.33-0.94-0.96-0.94-1.63v-4.04c0-0.67,0.36-1.29,0.94-1.63l3.5-2.02c0.57-0.33,1.31-0.33,1.88,0L46.29,26.35z"/>
	<path class="st0" d="M67.42,14.59l-7-4.04c-0.17-0.1-0.36-0.15-0.56-0.15c-0.2,0-0.39,0.05-0.56,0.15
		c-0.35,0.2-0.56,0.57-0.56,0.97V23.5c0,0.62,0.5,1.12,1.12,1.12h7c0.62,0,1.12-0.5,1.12-1.12v-7.94
		C67.98,15.16,67.76,14.79,67.42,14.59z"/>
	<path class="st0" d="M84.36,28.48c0.78,0,1.36,0.37,1.67,0.84l2.39-2.24c-0.56-0.84-1.96-1.87-4.22-1.87
		c-3.15,0-5.58,2.06-5.58,5.21c0,3.17,2.43,5.23,5.58,5.23c2.26,0,3.66-1.05,4.22-1.87l-2.39-2.26c-0.31,0.45-0.89,0.86-1.67,0.86
		c-1.05,0-1.96-0.68-1.96-1.96C82.4,29.14,83.31,28.48,84.36,28.48z"/>
	<path class="st0" d="M94.53,25.2c-3.52,0-5.58,2.43-5.58,5.21s2.06,5.23,5.58,5.23c3.54,0,5.6-2.45,5.6-5.23S98.07,25.2,94.53,25.2
		z M94.53,32.37c-1.13,0-1.77-0.84-1.77-1.96c0-1.09,0.64-1.94,1.77-1.94c1.15,0,1.79,0.84,1.79,1.94
		C96.32,31.52,95.68,32.37,94.53,32.37z"/>
	<path class="st0" d="M108.63,25.2c-1.75,0-2.84,0.72-3.42,1.38v-1.13h-3.71v9.94h3.71v-6.13c0.31-0.35,0.74-0.78,1.59-0.78
		c0.89,0,1.44,0.39,1.44,1.42v5.5h3.71v-7.06C111.95,26.6,110.94,25.2,108.63,25.2z"/>
	<path class="st0" d="M119.3,32.37c-0.49,0-0.82-0.41-0.82-0.93v-2.78h2.02v-3.21h-2.02v-2.72h-3.71v2.72h-1.65v3.21h1.65v3.85
		c0,2.08,1.21,3.13,3.42,3.13c1.26,0,2.12-0.31,2.51-0.66l-0.66-2.8C119.96,32.26,119.63,32.37,119.3,32.37z"/>
	<path class="st0" d="M128.36,26.5c-0.78-0.95-1.77-1.3-2.78-1.3c-2.45,0-4.38,1.91-4.38,5.21c0,3.42,1.98,5.23,4.38,5.23
		c1.01,0,1.96-0.35,2.8-1.3v1.05h3.71v-9.94h-3.73V26.5z M128.38,31.69c-0.35,0.43-1.05,0.68-1.54,0.68c-1.01,0-1.85-0.72-1.85-1.96
		c0-1.24,0.84-1.91,1.85-1.91c0.49,0,1.19,0.23,1.54,0.66V31.69z"/>
	<path class="st0" d="M136,20.57c-1.15,0-2.08,0.93-2.08,2.08c0,1.15,0.93,2.08,2.08,2.08c1.15,0,2.08-0.93,2.08-2.08
		C138.07,21.5,137.15,20.57,136,20.57z"/>
	<rect x="134.14" y="25.45" class="st0" width="3.71" height="9.94"/>
	<path class="st0" d="M147.03,25.2c-1.75,0-2.84,0.72-3.42,1.38v-1.13h-3.71v9.94h3.71v-6.13c0.31-0.35,0.74-0.78,1.59-0.78
		c0.89,0,1.44,0.39,1.44,1.42v5.5h3.71v-7.06C150.34,26.6,149.34,25.2,147.03,25.2z"/>
	<path class="st0" d="M157.14,25.2c-3.21,0-5.41,2.33-5.41,5.21c0,3.27,2.43,5.23,5.54,5.23c1.48,0,3.25-0.39,4.24-1.24l-1.52-2.29
		c-0.49,0.43-1.73,0.7-2.29,0.7c-1.21,0-1.94-0.62-2.14-1.26h6.75V30.8C162.31,27.3,160.06,25.2,157.14,25.2z M155.51,29.22
		c0.12-0.45,0.49-1.19,1.63-1.19c1.19,0,1.54,0.76,1.65,1.19H155.51z"/>
	<path class="st0" d="M167.29,26.54v-1.09h-3.71v9.94h3.71V29.3c0.41-0.49,1.42-0.7,2.2-0.7c0.35,0,0.66,0.04,0.84,0.1v-3.54
		C169.2,25.16,167.91,25.82,167.29,26.54z"/>
	<path class="st0" d="M179.33,26.95c-0.8-1.09-2.02-1.75-3.36-1.75c-2.59,0-4.43,2.04-4.43,5.23c0,3.23,1.83,5.21,4.43,5.21
		c1.4,0,2.61-0.72,3.36-1.73v1.48h1.54V21.66h-1.54V26.95z M179.33,32.68c-0.54,0.86-1.75,1.59-2.96,1.59
		c-2.02,0-3.21-1.63-3.21-3.83c0-2.2,1.19-3.85,3.21-3.85c1.21,0,2.43,0.74,2.96,1.61V32.68z"/>
	<path class="st0" d="M191.17,26.95c-0.8-1.09-2.02-1.75-3.36-1.75c-2.59,0-4.43,2.04-4.43,5.23c0,3.23,1.83,5.21,4.43,5.21
		c1.4,0,2.61-0.72,3.36-1.73v1.48h1.54v-9.94h-1.54V26.95z M191.17,32.68c-0.54,0.86-1.75,1.59-2.96,1.59
		c-2.02,0-3.21-1.63-3.21-3.83c0-2.2,1.19-3.85,3.21-3.85c1.21,0,2.43,0.74,2.96,1.61V32.68z"/>
	<path class="st0" d="M202.62,25.45l-3.31,8.15l-3.29-8.15h-1.69l4.16,10.05l-0.66,1.5c-0.35,0.82-0.8,1.05-1.48,1.05
		c-0.25,0-0.62-0.06-0.84-0.16l-0.23,1.4c0.27,0.08,0.78,0.14,1.11,0.14c1.32-0.02,2.33-0.58,2.92-2.02l4.98-11.96H202.62z"/>
</g>
</svg>
