<?xml version="1.0" encoding="utf-8"?>
<!-- Generator: Adobe Illustrator 24.1.0, SVG Export Plug-In . SVG Version: 6.00 Build 0)  -->
<svg version="1.1" id="Livello_1" xmlns="https://www.w3.org/2000/svg" xmlns:xlink="https://www.w3.org/1999/xlink" x="0px" y="0px"
	 viewBox="0 0 220 60" style="enable-background:new 0 0 220 60;" xml:space="preserve" width="200px" height="60px">
<style type="text/css">
	.st0{fill:#FFFFFF;}
</style>
<g>
	<g>
		<path class="st0" d="M57.26,31.2c-2.6-2.6-6.85-2.6-9.45,0L34.44,44.57c-2.6,2.6-2.6,6.85,0,9.45v0c2.6,2.6,6.85,2.6,9.45,0
			l13.37-13.37C59.86,38.06,59.86,33.8,57.26,31.2L57.26,31.2z"/>
		<path class="st0" d="M58.85,5.98c-2.6-2.6-6.85-2.6-9.45,0L36.03,19.34c-2.6,2.6-2.6,6.85,0,9.45l0,0c2.6,2.6,6.85,2.6,9.45,0
			l13.37-13.37C61.45,12.83,61.45,8.58,58.85,5.98L58.85,5.98z"/>
		<ellipse transform="matrix(0.9925 -0.1222 0.1222 0.9925 -2.9845 11.3303)" class="st0" cx="90.89" cy="30" rx="6.68" ry="6.68"/>
		<circle class="st0" cx="90.89" cy="10.71" r="6.68"/>
		<path class="st0" d="M74.18,4.03L74.18,4.03c-3.68,0-6.69,3.01-6.69,6.69v38.56c0,3.68,3.01,6.69,6.69,6.69h0
			c3.68,0,6.69-3.01,6.69-6.69V10.72C80.88,7.04,77.87,4.03,74.18,4.03z"/>
	</g>
	<g>
		<path class="st0" d="M114.24,35.16l1.6-2.59c1.02,0.96,3.11,1.92,4.86,1.92c1.6,0,2.36-0.64,2.36-1.51c0-2.33-8.34-0.44-8.34-5.96
			c0-2.36,2.06-4.42,5.76-4.42c2.38,0,4.27,0.81,5.67,1.92l-1.48,2.53c-0.84-0.9-2.44-1.63-4.16-1.63c-1.34,0-2.21,0.61-2.21,1.4
			c0,2.09,8.32,0.35,8.32,6.02c0,2.56-2.18,4.51-6.08,4.51C118.08,37.34,115.72,36.53,114.24,35.16z"/>
		<path class="st0" d="M130.87,36.99V26.18h-2.33v-3.23h2.33v-0.76c0-2.99,1.92-4.88,4.74-4.88c1.34,0,2.76,0.35,3.66,1.31
			l-1.4,2.18c-0.38-0.38-0.87-0.58-1.54-0.58c-1.02,0-1.74,0.67-1.74,1.98v0.76h2.85v3.23h-2.85v10.82H130.87z"/>
		<path class="st0" d="M150.81,36.99V34.9c-1.05,1.42-2.76,2.44-4.74,2.44c-3.66,0-6.25-2.79-6.25-7.36c0-4.51,2.59-7.39,6.25-7.39
			c1.89,0,3.61,0.93,4.74,2.47V17.6H153v19.39H150.81z M150.81,33.15v-6.34c-0.76-1.22-2.47-2.27-4.19-2.27
			c-2.85,0-4.54,2.33-4.54,5.44c0,3.11,1.69,5.41,4.54,5.41C148.34,35.39,150.06,34.38,150.81,33.15z"/>
		<path class="st0" d="M168.26,36.99V34.9c-1.05,1.42-2.76,2.44-4.74,2.44c-3.66,0-6.25-2.79-6.25-7.36c0-4.51,2.59-7.39,6.25-7.39
			c1.89,0,3.61,0.93,4.74,2.47v-2.12h2.18v14.04H168.26z M168.26,33.15v-6.34c-0.76-1.22-2.47-2.27-4.19-2.27
			c-2.85,0-4.54,2.33-4.54,5.44c0,3.11,1.69,5.41,4.54,5.41C165.79,35.39,167.5,34.38,168.26,33.15z"/>
		<path class="st0" d="M175.09,40.51c0.32,0.15,0.84,0.23,1.19,0.23c0.96,0,1.6-0.32,2.09-1.48l0.93-2.12l-5.87-14.19h2.38
			l4.65,11.51l4.68-11.51h2.36l-7.04,16.89c-0.84,2.04-2.27,2.82-4.13,2.85c-0.47,0-1.19-0.09-1.57-0.2L175.09,40.51z"/>
	</g>
</g>
</svg>
