<?xml version="1.0" encoding="utf-8"?>
<!-- Generator: Adobe Illustrator 24.1.0, SVG Export Plug-In . SVG Version: 6.00 Build 0)  -->
<svg version="1.1" id="Livello_1" xmlns="https://www.w3.org/2000/svg" xmlns:xlink="https://www.w3.org/1999/xlink" x="0px" y="0px"
	 viewBox="0 0 220 60" style="enable-background:new 0 0 220 60;" xml:space="preserve" width="200px" height="60px">
<style type="text/css">
	.st0{fill:#FFFFFF;}
</style>
<g>
	<polygon class="st0" points="82.31,30.66 79,20.71 72.15,20.71 78.89,38.12 85.77,38.12 92.51,20.71 85.66,20.71 	"/>
	<path class="st0" d="M106.42,31.45c-0.54,0.61-1.3,1.37-2.74,1.37c-1.59,0-2.52-0.68-2.52-2.45v-9.66h-6.49v12.43
		c0,2.99,1.73,5.41,5.77,5.41c3.06,0,4.97-1.26,5.98-2.38v1.95h6.49v-17.4h-6.49V31.45z"/>
	<path class="st0" d="M125.7,20.28c-5.62,0-9.48,4.07-9.48,9.12c0,5.73,4.25,9.15,9.69,9.15c2.59,0,5.69-0.68,7.42-2.16l-2.67-4
		c-0.86,0.76-3.03,1.23-4,1.23c-2.13,0-3.39-1.08-3.75-2.2h11.82v-1.33C134.74,23.95,130.81,20.28,125.7,20.28z M122.85,27.31
		c0.22-0.79,0.86-2.09,2.85-2.09c2.09,0,2.7,1.33,2.88,2.09H122.85z"/>
	<path class="st0" d="M151.39,23.34c-1.41-1.91-3.53-3.06-5.87-3.06c-4.54,0-7.75,3.57-7.75,9.15c0,5.66,3.21,9.12,7.75,9.12
		c2.45,0,4.58-1.26,5.87-3.03v2.59h2.7V14.08h-2.7V23.34z M151.39,33.36c-0.94,1.51-3.06,2.77-5.19,2.77c-3.53,0-5.62-2.85-5.62-6.7
		c0-3.86,2.09-6.74,5.62-6.74c2.13,0,4.25,1.3,5.19,2.81V33.36z"/>
	<path class="st0" d="M173.01,23.34c-1.41-1.91-3.53-3.06-5.87-3.06c-4.54,0-7.75,3.57-7.75,9.15c0,5.66,3.21,9.12,7.75,9.12
		c2.45,0,4.58-1.26,5.87-3.03v2.59h2.7v-17.4h-2.7V23.34z M173.01,33.36c-0.94,1.51-3.06,2.77-5.19,2.77c-3.53,0-5.62-2.85-5.62-6.7
		c0-3.86,2.09-6.74,5.62-6.74c2.13,0,4.25,1.3,5.19,2.81V33.36z"/>
	<path class="st0" d="M193.95,20.71l-5.8,14.27l-5.77-14.27h-2.95l7.28,17.58l-1.15,2.63c-0.61,1.44-1.41,1.84-2.59,1.84
		c-0.43,0-1.08-0.11-1.48-0.29l-0.4,2.45c0.47,0.14,1.37,0.25,1.95,0.25c2.31-0.04,4.07-1.01,5.12-3.53l8.72-20.94H193.95z"/>
	
		<ellipse transform="matrix(0.3827 -0.9239 0.9239 0.3827 -7.2966 79.8577)" class="st0" cx="56.11" cy="45.39" rx="4.95" ry="4.95"/>
	<polygon class="st0" points="23.13,16.16 47.11,30 23.13,43.95 23.13,51.98 61.06,30 23.13,8.02 	"/>
	<path class="st0" d="M56.11,9.66c-2.73,0-4.95,2.21-4.95,4.95s2.21,4.95,4.95,4.95c2.73,0,4.95-2.21,4.95-4.95
		S58.84,9.66,56.11,9.66z"/>
	<polygon class="st0" points="23.13,17.46 23.13,24.94 31.93,30 23.13,35.17 23.13,42.65 44.88,30 	"/>
</g>
</svg>
