<?xml version="1.0" standalone="no"?>
<!DOCTYPE svg PUBLIC "-//W3C//DTD SVG 20010904//EN"
 "http://www.w3.org/TR/2001/REC-SVG-20010904/DTD/svg10.dtd">
<svg version="1.0" xmlns="http://www.w3.org/2000/svg"
 width="810.000000pt" height="810.000000pt" viewBox="0 0 810.000000 810.000000"
 preserveAspectRatio="xMidYMid meet">
<metadata>
Created by potrace 1.11, written by Peter Selinger 2001-2013
</metadata>
<g transform="translate(0.000000,810.000000) scale(0.100000,-0.100000)"
fill="#000000" stroke="none">
<path d="M6450 8069 c0 -2 -18 -67 -41 -144 -22 -77 -42 -151 -45 -164 -3 -14
-7 -28 -10 -33 -3 -5 -17 -48 -30 -96 -14 -48 -27 -94 -29 -102 -2 -8 -9 -31
-14 -50 -5 -19 -30 -105 -56 -190 -25 -85 -48 -162 -50 -170 -14 -62 -19 -77
-29 -89 -6 -8 -9 -15 -7 -15 5 -1 -15 -87 -27 -116 -3 -8 -6 -19 -7 -25 -1 -5
-11 -41 -22 -80 -35 -112 -95 -319 -97 -330 -1 -5 -5 -16 -9 -22 -5 -7 -6 -13
-2 -13 3 0 1 -8 -4 -18 -6 -11 -12 -30 -15 -43 -2 -13 -18 -69 -34 -124 -16
-55 -33 -113 -37 -130 -5 -16 -9 -32 -11 -35 -1 -3 -5 -15 -9 -27 -8 -26 -6
-26 -60 -14 -22 5 -62 12 -90 16 -27 3 -63 8 -80 11 -16 3 -43 8 -60 10 -16 2
-48 5 -70 8 -22 3 -65 7 -95 10 -30 4 -64 8 -75 10 -11 2 -60 7 -110 11 -49 3
-110 8 -135 10 -276 24 -574 20 -895 -10 -98 -9 -122 -12 -185 -20 -30 -4 -68
-9 -85 -11 -16 -1 -31 -4 -32 -5 -2 -1 -11 -2 -20 -3 -19 -2 -103 -15 -133
-21 -9 -2 -33 -6 -51 -9 -80 -13 -251 -49 -344 -73 -55 -14 -109 -27 -120 -28
-11 -2 -40 -11 -65 -20 -25 -9 -54 -18 -64 -21 -11 -2 -42 -11 -70 -20 -47
-16 -166 -17 -1496 -18 -795 -1 -1444 -4 -1442 -8 1 -5 2 -12 2 -16 0 -5 8
-17 18 -28 10 -10 29 -35 42 -54 13 -19 29 -40 35 -46 5 -6 17 -22 25 -34 8
-12 23 -32 32 -44 10 -11 67 -88 128 -171 61 -82 118 -158 126 -169 9 -10 52
-68 97 -130 45 -61 84 -113 87 -116 3 -3 43 -57 90 -120 47 -63 87 -117 90
-120 3 -3 17 -21 30 -40 14 -19 28 -39 33 -45 35 -43 213 -285 223 -304 7 -14
9 -30 5 -35 -5 -6 -12 -29 -16 -51 -5 -22 -10 -47 -12 -55 -22 -95 -22 -299 0
-405 2 -11 8 -38 11 -60 13 -70 87 -277 131 -365 73 -146 92 -178 189 -310 81
-111 337 -370 365 -370 4 0 20 -11 35 -25 14 -13 26 -21 26 -17 0 4 4 2 8 -4
9 -13 109 -74 122 -74 6 0 10 -5 10 -12 0 -6 3 -8 7 -5 3 4 20 -2 37 -12 17
-10 74 -35 126 -56 52 -20 104 -41 115 -45 25 -11 92 -31 108 -34 7 -1 18 -5
25 -9 6 -5 12 -6 12 -4 0 3 21 -1 47 -9 47 -15 213 -52 263 -59 14 -2 41 -6
60 -10 38 -7 71 -12 140 -20 25 -3 59 -7 75 -9 45 -6 173 -18 226 -21 26 -1
52 -6 58 -9 6 -4 11 -2 11 4 0 6 5 8 11 4 6 -3 88 -9 183 -11 l171 -4 73 -51
c111 -76 339 -178 477 -213 19 -5 25 -6 57 -16 34 -10 103 -26 148 -34 14 -3
32 -7 40 -8 8 -2 38 -7 65 -11 28 -4 64 -9 80 -12 196 -32 594 -36 765 -9 14
3 48 7 75 10 28 3 60 7 72 9 49 10 118 20 126 18 4 -1 7 3 7 9 0 5 4 8 8 5 8
-5 148 27 182 41 18 8 17 7 60 17 19 5 40 12 45 16 6 4 28 13 50 20 82 26 304
141 313 162 2 4 9 8 15 8 6 0 21 9 33 21 19 18 37 21 155 24 136 4 147 5 233
24 65 15 205 69 238 92 14 11 29 19 33 19 4 0 39 22 78 50 80 54 207 173 252
235 17 22 33 42 36 45 45 38 247 430 222 430 -3 0 -1 6 5 13 9 11 50 146 58
192 2 11 8 40 13 65 11 48 24 140 25 178 1 12 4 22 7 22 3 0 5 102 4 228 -1
125 -3 227 -4 227 -3 0 -7 23 -15 99 -3 32 -8 61 -10 65 -2 3 -7 27 -10 52
-11 80 -88 347 -125 434 -36 84 -127 265 -156 310 -19 31 -35 57 -35 60 0 7
-63 96 -81 115 -21 23 -73 102 -76 117 -2 6 -23 83 -49 170 -25 87 -50 172
-54 188 -4 17 -22 77 -40 135 -17 58 -35 119 -39 135 -16 58 -42 150 -48 165
-3 8 -8 24 -10 35 -2 11 -7 31 -13 45 -9 24 -89 300 -95 330 -2 8 -10 34 -19
58 -8 23 -15 44 -15 47 -1 14 -14 64 -24 90 -6 17 -12 35 -13 40 -1 6 -16 60
-34 120 -18 61 -33 115 -34 120 -2 6 -11 36 -20 69 -10 32 -19 64 -21 70 -1 6
-5 18 -8 26 -4 8 -8 24 -10 35 -2 11 -9 33 -15 48 -7 16 -12 33 -12 39 0 5
-11 48 -26 94 -14 46 -27 91 -29 101 -2 10 -10 37 -19 61 -8 23 -13 42 -11 42
3 0 0 12 -6 28 -6 15 -12 34 -14 42 -10 39 -66 228 -75 255 -6 17 -13 38 -15
49 -4 17 -15 36 -15 25z"/>
<path d="M2532 1289 c-37 -9 -83 -24 -103 -32 -45 -20 -125 -80 -161 -121 -27
-31 -112 -186 -102 -186 2 0 0 -8 -5 -18 -6 -11 -13 -31 -16 -45 -3 -15 -7
-37 -10 -49 -3 -13 -7 -34 -10 -48 -14 -61 -17 -104 -19 -245 -4 -233 34 -350
140 -437 82 -67 218 -94 379 -74 32 4 63 10 67 12 4 3 16 7 27 9 45 9 130 58
173 100 88 88 133 214 154 429 11 102 -10 116 -164 113 -50 -1 -92 1 -92 5 0
4 -12 3 -27 -1 -16 -4 -44 -6 -63 -5 -70 2 -104 -35 -111 -121 -5 -65 17 -87
91 -90 33 -1 35 -2 32 -35 -4 -40 -37 -87 -76 -107 -15 -8 -25 -10 -22 -4 5 7
-2 7 -21 1 -34 -12 -53 -9 -85 12 -41 27 -56 92 -53 231 5 177 15 228 61 322
31 61 63 86 120 93 39 4 47 1 79 -31 19 -19 35 -44 35 -54 0 -11 3 -23 7 -27
4 -4 6 -22 5 -41 -3 -24 3 -39 19 -54 12 -11 25 -18 29 -16 4 2 25 7 46 10 21
2 50 7 64 10 13 2 42 7 64 11 72 10 93 28 100 81 11 79 -7 191 -41 258 -33 63
-115 123 -193 141 -19 4 -42 9 -50 12 -43 11 -208 6 -268 -9z"/>
<path d="M5457 1304 c-1 -1 -18 -5 -38 -8 -39 -6 -60 -12 -99 -28 -70 -30 -97
-48 -150 -98 -149 -144 -175 -372 -58 -505 53 -60 161 -113 308 -150 37 -9 97
-39 113 -56 37 -39 4 -117 -56 -136 -46 -14 -112 -8 -142 14 -14 10 -30 36
-36 58 -18 65 -23 70 -65 68 -113 -5 -220 -30 -245 -56 -18 -19 -20 -30 -15
-80 19 -192 157 -297 391 -299 83 0 181 11 226 28 22 7 39 11 39 8 0 -14 129
66 166 102 44 44 84 117 84 152 0 11 3 23 8 26 9 5 7 137 -2 180 -13 55 -46
105 -102 153 -31 26 -60 47 -64 46 -4 -1 -14 4 -20 12 -7 8 -20 15 -29 15 -9
0 -22 5 -29 12 -7 7 -12 8 -12 4 0 -5 -6 -4 -12 1 -7 6 -31 16 -53 23 -119 37
-175 77 -175 123 0 69 56 111 136 101 66 -8 98 -39 108 -104 5 -32 31 -64 45
-56 7 5 82 18 121 21 32 3 77 14 112 27 25 9 45 41 40 61 -1 4 2 7 8 7 5 0 7
6 5 13 -2 6 -7 30 -10 51 -8 55 -38 119 -74 159 -42 45 -142 94 -214 104 -35
5 -206 11 -210 7z"/>
<path d="M3332 1293 c-4 -1 -18 -4 -32 -7 -35 -7 -57 -50 -65 -126 -3 -36 -8
-72 -10 -80 -3 -8 -7 -40 -11 -70 -3 -30 -7 -68 -10 -85 -2 -16 -6 -46 -8 -65
-2 -19 -7 -53 -10 -75 -3 -22 -8 -60 -11 -85 -10 -81 -15 -115 -19 -135 -2
-11 -7 -49 -11 -85 -4 -36 -9 -74 -11 -85 -2 -11 -6 -46 -9 -78 -3 -32 -10
-79 -14 -104 -5 -25 -8 -67 -7 -94 2 -71 15 -77 159 -77 115 1 119 2 147 28
17 16 31 36 31 47 2 23 6 50 12 88 5 29 11 70 22 169 4 28 8 53 11 58 7 11 81
10 86 0 7 -19 178 -224 202 -242 76 -60 203 -119 266 -125 9 0 20 -4 25 -7 6
-3 42 -9 80 -13 39 -5 81 -10 95 -11 48 -6 348 -5 406 1 33 4 73 8 89 10 45 5
81 24 94 49 11 21 15 42 27 131 3 28 6 52 7 55 6 30 -44 69 -78 61 -24 -6
-180 -13 -285 -14 -158 0 -294 13 -360 35 -19 7 -37 13 -40 13 -47 10 -190
126 -190 155 0 5 10 15 23 21 41 23 122 108 147 156 14 26 28 50 33 51 4 2 5
8 2 13 -3 5 -1 18 5 29 28 53 14 240 -24 316 -32 62 -123 133 -191 149 -11 2
-40 9 -65 15 -35 9 -476 20 -508 13z m388 -306 c34 -9 67 -30 79 -50 38 -61
15 -161 -47 -199 -43 -26 -62 -30 -157 -32 l-70 -1 1 35 c1 19 4 51 7 70 2 19
8 64 12 100 3 36 8 70 10 76 3 9 130 11 165 1z"/>
<path d="M4317 1285 c-40 -13 -65 -56 -71 -125 -3 -30 -7 -64 -9 -75 -3 -11
-8 -47 -11 -80 -4 -33 -9 -71 -11 -85 -2 -14 -7 -47 -11 -75 -8 -56 -10 -209
-3 -240 10 -41 33 -95 41 -95 4 0 8 -6 8 -12 0 -7 17 -25 38 -39 148 -105 426
-79 546 51 30 33 75 106 82 135 2 6 10 35 18 65 8 30 17 75 20 100 5 42 8 69
22 158 3 20 7 57 10 82 2 25 7 61 10 80 17 103 13 132 -21 150 -26 14 -128 18
-191 7 -61 -10 -71 -39 -100 -287 -2 -19 -6 -51 -9 -70 -3 -19 -7 -53 -10 -75
-18 -156 -47 -215 -107 -215 -75 0 -86 70 -49 300 5 30 9 62 10 70 0 8 3 33 6
55 27 169 23 210 -22 221 -41 11 -154 10 -186 -1z"/>
<path d="M6184 1289 c-55 -9 -80 -43 -89 -121 -4 -34 -9 -72 -11 -83 -2 -11
-6 -44 -10 -74 -3 -30 -7 -62 -9 -70 -1 -9 -6 -38 -9 -66 -3 -27 -9 -68 -12
-90 -3 -22 -7 -54 -9 -71 -2 -18 -9 -69 -15 -114 -6 -45 -13 -96 -15 -114 -7
-58 -16 -131 -20 -156 -8 -50 -15 -106 -19 -151 -3 -25 -6 -49 -7 -55 -6 -23
16 -66 37 -75 14 -5 71 -8 128 -8 156 0 174 17 191 174 6 62 9 80 20 151 l6
41 92 2 c125 3 154 6 213 24 147 44 260 134 315 250 36 79 39 90 46 200 7 111
-9 191 -53 260 -18 28 -34 49 -34 45 0 -3 -13 6 -29 21 -35 33 -137 69 -216
77 -82 9 -443 10 -491 3z m442 -312 c61 -32 81 -81 62 -156 -20 -80 -96 -118
-233 -117 l-70 1 1 40 c1 22 4 60 8 85 4 25 9 68 12 95 2 28 6 55 8 61 6 16
178 9 212 -9z"/>
<path d="M6853 208 c-30 -21 -53 -74 -44 -103 2 -5 5 -18 7 -29 2 -10 11 -24
21 -32 20 -15 113 -19 113 -5 0 5 8 12 18 16 24 7 42 46 42 91 0 76 -88 110
-157 62z m108 -21 c26 -23 24 -70 -3 -101 -23 -25 -34 -29 -76 -27 -32 1 -54
55 -38 90 24 55 77 72 117 38z"/>
<path d="M6879 183 c0 -5 -2 -17 -4 -28 -9 -45 -10 -77 -2 -76 4 1 12 1 17 1
6 0 10 8 11 18 0 13 2 14 6 2 3 -8 11 -18 17 -22 17 -11 27 2 16 23 -7 12 -7
19 -1 19 16 0 24 40 11 55 -13 15 -69 21 -71 8z m46 -33 c3 -5 -1 -10 -10 -10
-9 0 -13 5 -10 10 3 6 8 10 10 10 2 0 7 -4 10 -10z"/>
</g>
</svg>
